G04 Layer_Color=8421504*
%FSLAX25Y25*%
%MOIN*%
G70*
G01*
G75*
%ADD11R,0.05000X0.21063*%
%ADD12R,0.05906X0.09843*%
%ADD13R,0.25000X0.20000*%
%ADD14O,0.08000X0.02400*%
%ADD15R,0.06000X0.06000*%
%ADD16R,0.05000X0.05000*%
%ADD17R,0.03800X0.04500*%
%ADD18O,0.02400X0.08000*%
%ADD19R,0.04500X0.03800*%
D11*
X470807Y96136D02*
D03*
X480807D02*
D03*
X490807D02*
D03*
X470807Y132776D02*
D03*
X480807D02*
D03*
X490807D02*
D03*
D12*
X281447Y42296D02*
D03*
X263337D02*
D03*
X281447Y185757D02*
D03*
X263337D02*
D03*
X297146D02*
D03*
X315256D02*
D03*
X546661Y65545D02*
D03*
X528551D02*
D03*
X529338Y146771D02*
D03*
X547448D02*
D03*
X315256Y42296D02*
D03*
X297146D02*
D03*
D13*
X272392Y14546D02*
D03*
X272392Y213507D02*
D03*
X306201D02*
D03*
X537606Y37795D02*
D03*
X538393Y174521D02*
D03*
X306201Y14546D02*
D03*
D14*
X217488Y140847D02*
D03*
Y135846D02*
D03*
Y130847D02*
D03*
X194488D02*
D03*
Y135846D02*
D03*
Y140847D02*
D03*
Y125847D02*
D03*
X217488D02*
D03*
Y166929D02*
D03*
Y161929D02*
D03*
Y156929D02*
D03*
X194488D02*
D03*
Y161929D02*
D03*
Y166929D02*
D03*
X217291Y90453D02*
D03*
Y85453D02*
D03*
Y80453D02*
D03*
X194291D02*
D03*
Y85453D02*
D03*
Y90453D02*
D03*
X217390Y66043D02*
D03*
Y61043D02*
D03*
Y56043D02*
D03*
X194390D02*
D03*
Y61043D02*
D03*
Y66043D02*
D03*
X194488Y151929D02*
D03*
X217488D02*
D03*
X194291Y75453D02*
D03*
X217291D02*
D03*
X194390Y51043D02*
D03*
X217390D02*
D03*
X532283Y111811D02*
D03*
Y106811D02*
D03*
Y101811D02*
D03*
Y96811D02*
D03*
X555283D02*
D03*
Y101811D02*
D03*
Y106811D02*
D03*
Y111811D02*
D03*
D15*
X160138Y43110D02*
D03*
X173638D02*
D03*
X728346Y163762D02*
D03*
X741846D02*
D03*
X660335Y61910D02*
D03*
X646835D02*
D03*
X659055Y174213D02*
D03*
X645555D02*
D03*
X741846Y53034D02*
D03*
X728346D02*
D03*
D16*
X120839Y53543D02*
D03*
X128839D02*
D03*
X120839Y63976D02*
D03*
X128839D02*
D03*
Y84842D02*
D03*
Y74410D02*
D03*
X120839D02*
D03*
X168138Y33071D02*
D03*
Y84842D02*
D03*
X160138D02*
D03*
X168138Y74508D02*
D03*
X781874Y91813D02*
D03*
X773874D02*
D03*
X731004Y99628D02*
D03*
X739004D02*
D03*
X650197Y73425D02*
D03*
X658197D02*
D03*
X648917Y194587D02*
D03*
X656917D02*
D03*
X658197Y42421D02*
D03*
X650197D02*
D03*
X657016Y142520D02*
D03*
X649016D02*
D03*
X708637Y94193D02*
D03*
X700637D02*
D03*
X146823Y204429D02*
D03*
X57953D02*
D03*
X804106Y68074D02*
D03*
X812106D02*
D03*
X804106Y44865D02*
D03*
X812106D02*
D03*
X527236Y80512D02*
D03*
X535236D02*
D03*
X547283D02*
D03*
X555283D02*
D03*
Y128347D02*
D03*
X547283D02*
D03*
X521457Y104232D02*
D03*
X739004Y63565D02*
D03*
Y153723D02*
D03*
X697173Y35039D02*
D03*
X689173D02*
D03*
X697173Y149508D02*
D03*
X689173D02*
D03*
X697173Y24803D02*
D03*
X689173D02*
D03*
X650197Y82677D02*
D03*
X658197D02*
D03*
X648917Y184843D02*
D03*
X656917D02*
D03*
X650197Y51772D02*
D03*
X658197D02*
D03*
X649016Y162402D02*
D03*
X657016D02*
D03*
Y152756D02*
D03*
X649016D02*
D03*
X658197Y32972D02*
D03*
X650197D02*
D03*
X154800Y183858D02*
D03*
X146800D02*
D03*
X146850Y193898D02*
D03*
X57953D02*
D03*
X65953Y183858D02*
D03*
X57953D02*
D03*
X611122Y218089D02*
D03*
X603122D02*
D03*
X592520Y120079D02*
D03*
X600520D02*
D03*
Y111417D02*
D03*
X592520D02*
D03*
X625406Y14567D02*
D03*
X633406D02*
D03*
X689173Y139862D02*
D03*
X697173D02*
D03*
X739004Y90613D02*
D03*
X731004D02*
D03*
Y81597D02*
D03*
X739004D02*
D03*
Y108644D02*
D03*
X731004Y153723D02*
D03*
Y63565D02*
D03*
Y135691D02*
D03*
X739004D02*
D03*
X731004Y72581D02*
D03*
X739004D02*
D03*
X731004Y144707D02*
D03*
X227756Y56595D02*
D03*
X235756D02*
D03*
X227236Y156398D02*
D03*
X235236D02*
D03*
X226842Y80118D02*
D03*
X234842D02*
D03*
X227138Y130807D02*
D03*
X235138D02*
D03*
X526772Y128347D02*
D03*
X534772D02*
D03*
X154823Y204429D02*
D03*
X65953D02*
D03*
X154850Y193898D02*
D03*
X160138Y33071D02*
D03*
Y74508D02*
D03*
X65953Y193898D02*
D03*
X120839Y84842D02*
D03*
X513457Y104232D02*
D03*
X731004Y108644D02*
D03*
X739004Y144707D02*
D03*
Y117660D02*
D03*
X731004D02*
D03*
X739004Y126675D02*
D03*
X731004D02*
D03*
D17*
X805355Y170916D02*
D03*
X809055Y161516D02*
D03*
X801655D02*
D03*
X775707Y154183D02*
D03*
X772007Y161467D02*
D03*
X805355Y154183D02*
D03*
X801655Y178248D02*
D03*
X772007Y144783D02*
D03*
X801655D02*
D03*
X805355Y187648D02*
D03*
X768307Y170867D02*
D03*
X775707D02*
D03*
X772106Y178150D02*
D03*
X768405Y187550D02*
D03*
X775806D02*
D03*
X809055Y178248D02*
D03*
X768307Y154183D02*
D03*
X809055Y144783D02*
D03*
X119405Y165157D02*
D03*
X115706Y174557D02*
D03*
X123106D02*
D03*
X119405Y182578D02*
D03*
X115706Y191978D02*
D03*
X123106D02*
D03*
X119405Y199360D02*
D03*
X115706Y208760D02*
D03*
X123106D02*
D03*
D18*
X840840Y44778D02*
D03*
X835840D02*
D03*
X830840D02*
D03*
X825840D02*
D03*
Y67778D02*
D03*
X830840D02*
D03*
X835840D02*
D03*
X840840D02*
D03*
X704293Y47662D02*
D03*
X699293D02*
D03*
X694293D02*
D03*
X689293D02*
D03*
Y70662D02*
D03*
X694293D02*
D03*
X699293D02*
D03*
X704293D02*
D03*
Y157807D02*
D03*
X699293D02*
D03*
X694293D02*
D03*
X689293D02*
D03*
Y180807D02*
D03*
X694293D02*
D03*
X699293D02*
D03*
X704293D02*
D03*
X843058Y123026D02*
D03*
X838058D02*
D03*
X833058D02*
D03*
X828058D02*
D03*
Y100026D02*
D03*
X833058D02*
D03*
X838058D02*
D03*
X843058D02*
D03*
D19*
X235925Y138761D02*
D03*
Y146161D02*
D03*
X226525Y142461D02*
D03*
X236417Y86891D02*
D03*
Y94291D02*
D03*
X227017Y90591D02*
D03*
X235728Y62777D02*
D03*
Y70177D02*
D03*
X226328Y66477D02*
D03*
X226525Y167560D02*
D03*
X235925Y171260D02*
D03*
Y163860D02*
D03*
M02*
