G04 Layer_Physical_Order=8*
G04 Layer_Color=16711680*
%FSLAX25Y25*%
%MOIN*%
G70*
G01*
G75*
%ADD10C,0.04000*%
%ADD11R,0.05000X0.21063*%
%ADD12R,0.05906X0.09843*%
%ADD13R,0.25000X0.20000*%
%ADD15R,0.06000X0.06000*%
%ADD16R,0.05000X0.05000*%
%ADD19R,0.04500X0.03800*%
%ADD21C,0.06000*%
%ADD22C,0.12000*%
%ADD23C,0.10000*%
%ADD24C,0.15000*%
%ADD25C,0.18000*%
%ADD26C,0.07874*%
%ADD27R,0.07874X0.07874*%
%ADD28C,0.05512*%
%ADD29C,0.05906*%
%ADD30R,0.05906X0.05906*%
%ADD31C,0.13000*%
%ADD32C,0.06500*%
%ADD33O,0.08000X0.06000*%
%ADD34R,0.08000X0.06000*%
%ADD35C,0.20000*%
%ADD36C,0.04000*%
%ADD37C,0.04004*%
%ADD60R,0.07200X0.11000*%
%ADD61R,0.03100X0.05000*%
%ADD62R,0.06000X0.10000*%
%ADD63R,0.06000X0.06000*%
%ADD64R,0.05000X0.05000*%
%ADD65R,0.11417X0.09843*%
%ADD66C,0.04354*%
G36*
X144962Y30294D02*
X144984Y29727D01*
X145052Y29158D01*
X145165Y28587D01*
X145323Y28015D01*
X145525Y27441D01*
X145773Y26866D01*
X146066Y26289D01*
X146405Y25711D01*
X146788Y25130D01*
X147216Y24549D01*
X138201Y25789D01*
X138726Y26209D01*
X139195Y26648D01*
X139609Y27108D01*
X139968Y27586D01*
X140272Y28085D01*
X140520Y28604D01*
X140713Y29142D01*
X140851Y29699D01*
X140934Y30277D01*
X140962Y30874D01*
X144962Y30294D01*
D02*
G37*
G36*
X169608Y30071D02*
X169685Y29495D01*
X169812Y28929D01*
X169991Y28371D01*
X170220Y27823D01*
X170501Y27283D01*
X170832Y26752D01*
X171215Y26230D01*
X171648Y25717D01*
X172133Y25212D01*
X163033D01*
X163517Y25717D01*
X163951Y26230D01*
X164333Y26752D01*
X164665Y27283D01*
X164945Y27823D01*
X165175Y28371D01*
X165353Y28929D01*
X165481Y29495D01*
X165557Y30071D01*
X165583Y30655D01*
X169583D01*
X169608Y30071D01*
D02*
G37*
G36*
X116504Y14071D02*
X115805Y14056D01*
X115135Y14000D01*
X114496Y13901D01*
X113886Y13760D01*
X113306Y13577D01*
X112756Y13351D01*
X112235Y13083D01*
X111744Y12773D01*
X111283Y12420D01*
X110852Y12025D01*
X108024Y14853D01*
X108419Y15285D01*
X108772Y15746D01*
X109082Y16236D01*
X109350Y16757D01*
X109576Y17307D01*
X109759Y17887D01*
X109900Y18497D01*
X109999Y19137D01*
X110055Y19806D01*
X110069Y20505D01*
X116504Y14071D01*
D02*
G37*
G36*
X86098Y28386D02*
X86535Y28020D01*
X86967Y27706D01*
X87395Y27444D01*
X87817Y27233D01*
X88236Y27075D01*
X88649Y26968D01*
X89058Y26913D01*
X89462Y26910D01*
X89862Y26958D01*
X84674Y21771D01*
X84723Y22170D01*
X84720Y22574D01*
X84664Y22983D01*
X84558Y23397D01*
X84399Y23815D01*
X84189Y24238D01*
X83926Y24665D01*
X83612Y25097D01*
X83246Y25534D01*
X82828Y25975D01*
X85657Y28804D01*
X86098Y28386D01*
D02*
G37*
G36*
X748856Y202907D02*
X747570Y201103D01*
X747048Y200245D01*
X746606Y199415D01*
X746245Y198615D01*
X745964Y197844D01*
X745763Y197101D01*
X745643Y196388D01*
X745602Y195703D01*
X741602Y195298D01*
X741557Y196034D01*
X741422Y196768D01*
X741195Y197502D01*
X740879Y198235D01*
X740472Y198967D01*
X739974Y199698D01*
X739386Y200428D01*
X738708Y201157D01*
X737939Y201886D01*
X737080Y202613D01*
X749619Y203852D01*
X748856Y202907D01*
D02*
G37*
G36*
X814461Y208369D02*
X814642Y206243D01*
X814809Y205285D01*
X815027Y204398D01*
X815296Y203582D01*
X815617Y202835D01*
X815989Y202160D01*
X816411Y201554D01*
X816885Y201019D01*
X814057Y198191D01*
X813522Y198665D01*
X812917Y199088D01*
X812241Y199460D01*
X811495Y199780D01*
X810678Y200049D01*
X809791Y200268D01*
X808834Y200435D01*
X807806Y200551D01*
X806707Y200615D01*
X805538Y200629D01*
X814448Y209538D01*
X814461Y208369D01*
D02*
G37*
G36*
X205717Y202516D02*
X204548Y202503D01*
X202422Y202322D01*
X201464Y202155D01*
X200577Y201937D01*
X199760Y201667D01*
X199014Y201347D01*
X198338Y200975D01*
X197733Y200552D01*
X197198Y200078D01*
X194370Y202907D01*
X194844Y203442D01*
X195267Y204047D01*
X195638Y204723D01*
X195959Y205469D01*
X196228Y206286D01*
X196446Y207173D01*
X196613Y208130D01*
X196729Y209158D01*
X196794Y210257D01*
X196808Y211426D01*
X205717Y202516D01*
D02*
G37*
G36*
X779566Y202365D02*
X778190Y200734D01*
X777631Y199938D01*
X777158Y199157D01*
X776771Y198389D01*
X776470Y197634D01*
X776255Y196894D01*
X776126Y196167D01*
X776083Y195453D01*
X772083D01*
X772040Y196167D01*
X771911Y196894D01*
X771696Y197634D01*
X771395Y198389D01*
X771008Y199157D01*
X770535Y199938D01*
X769976Y200734D01*
X769331Y201542D01*
X768600Y202365D01*
X767783Y203201D01*
X780383D01*
X779566Y202365D01*
D02*
G37*
G36*
X238259Y203760D02*
X236883Y202129D01*
X236324Y201334D01*
X235851Y200552D01*
X235464Y199784D01*
X235163Y199030D01*
X234948Y198289D01*
X234819Y197562D01*
X234776Y196849D01*
X230776D01*
X230733Y197562D01*
X230604Y198289D01*
X230389Y199030D01*
X230088Y199784D01*
X229701Y200552D01*
X229228Y201334D01*
X228669Y202129D01*
X228024Y202938D01*
X227293Y203760D01*
X226476Y204596D01*
X239076D01*
X238259Y203760D01*
D02*
G37*
D10*
X471004Y79173D02*
Y96234D01*
X464075Y72244D02*
X471004Y79173D01*
X447736Y72244D02*
X464075D01*
X443307Y67815D02*
X447736Y72244D01*
X443209Y56102D02*
Y67716D01*
X473398Y152728D02*
X509154D01*
X470807Y150138D02*
X473398Y152728D01*
X491667Y133465D02*
X509154D01*
X491142Y98256D02*
Y111713D01*
X488681Y114173D02*
X491142Y111713D01*
X457185Y114173D02*
X488681D01*
X481004Y73524D02*
X485039Y69488D01*
X485138Y69587D02*
X511024D01*
X485039Y69488D02*
X485138Y69587D01*
X804675Y68133D02*
Y70826D01*
X811703Y77854D01*
X813681D01*
X818924Y83097D01*
Y89764D01*
X814477Y94211D02*
X818924Y89764D01*
X813484Y94211D02*
X814477D01*
X820472Y100376D02*
X825591D01*
X809431D02*
X820472D01*
X804084Y95029D02*
X809431Y100376D01*
X804084Y90511D02*
Y95029D01*
X831083Y71781D02*
Y79705D01*
X830545Y42109D02*
X830840Y41813D01*
X814075Y42109D02*
X830545D01*
X756004Y125162D02*
Y130610D01*
X754348Y123506D02*
X756201D01*
X696654Y12402D02*
Y12402D01*
X686569Y22486D02*
X696654Y12402D01*
X690786Y143307D02*
X690801D01*
X830840Y31332D02*
Y41813D01*
X814026Y23859D02*
Y29057D01*
X804675Y38409D02*
X814026Y29057D01*
X831083Y79705D02*
X833665Y82288D01*
X834391D01*
X840453Y82185D02*
X844340Y78298D01*
Y71538D02*
Y78298D01*
X830840Y71538D02*
X831083Y71781D01*
X830840Y41813D02*
Y51951D01*
X844340Y41813D02*
Y46451D01*
X838840Y51951D02*
X844340Y46451D01*
X838840Y51951D02*
Y60613D01*
X844340Y66113D02*
Y71538D01*
X838840Y60613D02*
X844340Y66113D01*
X830840Y60613D02*
Y71538D01*
X836051Y100376D02*
Y110908D01*
Y121439D01*
Y131971D01*
X828051Y100376D02*
Y110908D01*
Y121439D02*
Y131971D01*
X836051D02*
Y140776D01*
X828051Y131971D02*
Y140453D01*
X797767Y112581D02*
Y118006D01*
X792267Y123506D02*
X797767Y118006D01*
X784267Y112581D02*
Y123506D01*
X763677Y132695D02*
X770155Y139173D01*
X807283D01*
X813484Y132972D01*
Y124114D02*
Y132972D01*
X805484Y124114D02*
Y132508D01*
X750767Y118073D02*
X756201Y123506D01*
X750767Y112286D02*
Y118073D01*
X816535Y181616D02*
X816949Y181203D01*
X816535Y181616D02*
Y198541D01*
X805448Y209628D02*
X816535Y198541D01*
X774083Y181203D02*
Y209628D01*
X774083Y181203D02*
X774083D01*
X803429Y154731D02*
X809028Y149132D01*
X803429Y154731D02*
Y160416D01*
X801336D02*
X803429D01*
X760583Y154632D02*
X766083Y149132D01*
X760583Y154632D02*
Y160416D01*
X706425Y94980D02*
X710039Y91366D01*
X698637Y95193D02*
Y102695D01*
X698801Y143307D02*
Y158291D01*
X698917Y158408D02*
Y168405D01*
X665137Y112697D02*
Y121141D01*
X667913Y123917D01*
X671063D01*
X678637Y112697D02*
X678637Y112697D01*
X694569Y30906D02*
X699293Y35630D01*
Y47661D01*
X686569Y22486D02*
Y30906D01*
X681398D02*
X686569D01*
X676293Y36010D02*
X681398Y30906D01*
X682185Y85335D02*
X690650D01*
X636460Y71413D02*
X636713Y71161D01*
X636460Y71413D02*
Y81595D01*
X646161Y23819D02*
Y24441D01*
X637260Y33342D02*
X646161Y24441D01*
X631760Y38842D02*
X637260Y33342D01*
X631760Y38842D02*
Y43677D01*
X643012Y14567D02*
X643504Y14075D01*
X631398Y14567D02*
X643012D01*
X623760Y33342D02*
Y43677D01*
X581791Y34843D02*
X581890Y34941D01*
X594783D01*
X603457Y39768D02*
X608284Y34941D01*
X603457Y39768D02*
Y53425D01*
X612854Y71488D02*
X622961Y81595D01*
X612823Y71488D02*
X612854D01*
X603933Y62598D02*
X612823Y71488D01*
X588315Y62598D02*
X603933D01*
X588315Y53937D02*
Y62598D01*
X595405Y45374D02*
X603457Y53425D01*
X562205Y45374D02*
X595405D01*
X557815Y49764D02*
X562205Y45374D01*
X557815Y49764D02*
Y53937D01*
Y62598D01*
X547448Y146771D02*
X552578D01*
X528551Y55997D02*
Y65545D01*
X572933Y119980D02*
X573130Y119783D01*
X584823D01*
X574213Y110728D02*
X584823D01*
X592823D02*
Y119783D01*
X602323Y110728D02*
Y119882D01*
X663169Y110728D02*
X665137Y112697D01*
X558268Y138386D02*
X558843D01*
X568291Y147835D01*
X698650Y181451D02*
X698801Y181299D01*
X680020Y197539D02*
X690650D01*
X675801Y193321D02*
X680020Y197539D01*
X581831Y147874D02*
Y159626D01*
X651968Y181299D02*
X675801D01*
X643110Y190157D02*
X651968Y181299D01*
X629610Y182201D02*
X633957Y177854D01*
X629610Y182201D02*
Y190157D01*
X613949Y187098D02*
Y197327D01*
X575610Y165847D02*
X581831Y159626D01*
X567126Y165847D02*
X575610D01*
X560964Y172008D02*
X567126Y165847D01*
X560964Y172008D02*
Y177362D01*
X529338Y157783D02*
X529429Y157874D01*
X529338Y146771D02*
Y157783D01*
X18291Y157693D02*
Y165059D01*
Y157693D02*
X23819Y152165D01*
X31791Y152193D02*
Y165059D01*
Y152193D02*
X31819Y152165D01*
X31791Y165059D02*
X60276D01*
X67953Y172736D01*
X18291Y165059D02*
Y173803D01*
X24409Y179921D01*
X40768D01*
X47953Y172736D01*
Y142736D02*
Y152461D01*
X55953D02*
X68228D01*
X77953Y142736D01*
X64453Y187807D02*
X69953Y193307D01*
Y197807D01*
X76870Y204724D01*
X105905Y157665D02*
X111406Y152165D01*
X105905Y157665D02*
Y165157D01*
X119405Y152165D02*
Y165157D01*
X119405Y165157D01*
X149221D01*
X156800Y172736D01*
X105905Y165157D02*
Y174705D01*
X112106Y180905D01*
X128630D01*
X136800Y172736D01*
X153300Y183169D02*
Y188594D01*
X158800Y194095D01*
Y198957D01*
X164665Y204823D01*
X166800Y183169D02*
Y194095D01*
Y172736D02*
Y183169D01*
X144800Y152165D02*
X157371D01*
X166800Y142736D01*
X136800Y142736D02*
Y152165D01*
X136800Y142736D02*
X136800Y142736D01*
X52285Y115924D02*
Y129235D01*
Y115924D02*
X59842Y108366D01*
X74213D01*
X82213Y99307D02*
Y108366D01*
X82285Y122538D02*
Y129235D01*
Y122538D02*
X86122Y118701D01*
X91930D01*
Y108073D02*
Y118701D01*
X99930Y108073D02*
X100000Y108004D01*
Y103347D02*
Y108004D01*
Y103347D02*
X104112Y99235D01*
X109686D01*
X99930Y118701D02*
X109686Y128457D01*
Y129235D01*
X127686Y108073D02*
X130848D01*
X139686Y99235D01*
X133087Y118405D02*
X138857D01*
X149686Y129235D01*
X161713Y101261D02*
Y108563D01*
X159686Y99235D02*
X161713Y101261D01*
X169686Y99235D02*
Y108537D01*
X28405Y60854D02*
Y73996D01*
X36531Y60728D02*
X55138D01*
X68405Y73996D01*
X38405Y38366D02*
X47539Y29232D01*
X52256D01*
X38405Y38366D02*
Y43996D01*
X28405Y38543D02*
X47559Y19390D01*
X52256D01*
X28405Y38543D02*
Y43996D01*
X60256Y29232D02*
X67665D01*
X69508Y27390D01*
X60256Y19390D02*
X69508D01*
X60256Y13406D02*
Y19390D01*
Y13406D02*
X63425Y10236D01*
X106235D01*
X116569Y20570D01*
X69508Y27390D02*
X84243D01*
X91062Y20570D01*
X88406Y43996D02*
X94882Y50472D01*
X119017D01*
X125985Y43504D01*
X133985D02*
X141119D01*
X142962Y41661D01*
X133985Y33661D02*
X142962D01*
Y21456D02*
Y33661D01*
X142076Y20570D02*
X142962Y21456D01*
Y41661D02*
X162177D01*
X167583Y36256D01*
Y20570D02*
Y36256D01*
X214665Y187303D02*
X232775D01*
X232776Y187304D01*
Y211024D01*
X240775Y187303D02*
X250886D01*
X206004Y151929D02*
X215988D01*
X217012Y152953D01*
X221949D02*
X227854Y158858D01*
X227362Y141339D02*
X227854Y140846D01*
X206004Y125984D02*
X216126D01*
X217488Y127346D01*
X222354D01*
X227854Y132846D01*
X263337Y180561D02*
Y185757D01*
Y180561D02*
X270248Y173650D01*
X345079Y213287D02*
X400000D01*
X281447Y185757D02*
X295592Y199902D01*
X331693D01*
X345079Y213287D01*
X297146Y186249D02*
X305067Y194170D01*
X319451D01*
X319695Y193926D01*
X345957D01*
X350256Y198225D01*
X306524Y186249D02*
X315256D01*
X400000Y213287D02*
X416902D01*
Y203669D02*
Y213287D01*
Y203669D02*
X417913Y202658D01*
X424902Y203150D02*
Y213287D01*
X297342Y120980D02*
X329685D01*
X297342Y106693D02*
X328504D01*
X347008Y105512D02*
Y120980D01*
Y105512D02*
X347303Y105217D01*
X358366D01*
X217291Y90453D02*
X227658D01*
X206299D02*
X217291D01*
Y76953D02*
X222158D01*
X227658Y82453D01*
X207405Y76953D02*
X217291D01*
X205906Y75453D02*
X207405Y76953D01*
X227756Y66043D02*
X227756Y66043D01*
X206004Y51279D02*
X216158D01*
X217028Y52150D01*
X222921Y58043D01*
X227756D01*
X251673Y27461D02*
Y30632D01*
X263337Y42296D01*
X281447D02*
Y49558D01*
X285307Y53417D01*
X311248D01*
X297146Y42296D02*
X305637D01*
X315256D02*
X322835Y49875D01*
Y68996D01*
X333166Y79327D01*
X350256D01*
X400453Y15945D02*
X414736D01*
X400453D02*
X411476Y26969D01*
X413370D01*
X417110Y34449D02*
Y50508D01*
X411516Y56102D02*
X417110Y50508D01*
X425016Y56102D02*
X435209D01*
X420851Y26969D02*
X430610D01*
X441634Y15945D01*
X422736D02*
X441634D01*
X450689Y107677D02*
X457185Y114173D01*
X450689Y85827D02*
Y107677D01*
X395256Y53347D02*
Y69468D01*
X409842Y84055D01*
X420839D01*
Y75130D02*
Y84055D01*
X411516Y56102D02*
Y65807D01*
X420354Y74646D02*
X420839Y75130D01*
X411516Y65807D02*
X420354Y74646D01*
X425016Y56102D02*
Y69307D01*
X430354Y74646D02*
Y82539D01*
X428839Y84055D02*
X430354Y82539D01*
X424902Y213287D02*
X441181D01*
X421654Y184378D02*
Y195177D01*
X420839Y183563D02*
X421654Y184378D01*
X428839Y173012D02*
Y183563D01*
Y173012D02*
X430354Y171496D01*
X406575Y183563D02*
X420839D01*
X395256Y172244D02*
X406575Y183563D01*
X420839Y171980D02*
Y183563D01*
X411516Y155413D02*
Y162657D01*
X420354Y171496D02*
X420839Y171980D01*
X411516Y162657D02*
X420354Y171496D01*
X425354Y155752D02*
Y166496D01*
X425496Y155610D02*
X435209D01*
X443209Y145374D02*
Y155610D01*
X557087Y72146D02*
X565158D01*
X712122Y113681D02*
Y118220D01*
X804626Y20159D02*
X808348Y16437D01*
X821949D01*
X822736D01*
X600457Y191669D02*
Y197335D01*
X605028Y187098D02*
X605949D01*
X605295Y215059D02*
Y216516D01*
X610020Y221240D01*
X624823D01*
X629921Y216142D01*
X613957Y197335D02*
X613957Y197335D01*
X613957Y197335D02*
Y207854D01*
Y214398D01*
X613295Y215059D02*
X613957Y214398D01*
X613949Y197327D02*
X613957Y197335D01*
X591465Y177264D02*
Y185925D01*
Y177264D02*
X597862Y170866D01*
X626968D01*
X633957Y177854D01*
X797767Y112581D02*
X801968Y108380D01*
Y103051D02*
Y108380D01*
X791874Y83704D02*
Y92502D01*
X791634Y83465D02*
X791874Y83704D01*
X560964Y177362D02*
Y185925D01*
X698721Y48234D02*
Y56595D01*
X571555Y97433D02*
X579323Y89665D01*
X571555Y97433D02*
Y108071D01*
X610323Y119882D02*
X624803D01*
X206004Y167224D02*
X227488D01*
X205906Y141339D02*
X227362D01*
X205890Y66043D02*
X227756D01*
X77953Y172736D02*
Y193307D01*
X470807Y130636D02*
Y150138D01*
X481004Y73524D02*
Y98203D01*
X119587Y99334D02*
Y118405D01*
X814075Y71833D02*
X831030D01*
X601831Y120374D02*
Y129626D01*
X592823Y89665D02*
Y110728D01*
X425354Y155752D02*
X425496Y155610D01*
X623760Y14929D02*
Y33342D01*
X784267Y92896D02*
Y112581D01*
X763677Y112876D02*
Y132695D01*
X480807Y130636D02*
Y147146D01*
X552578Y146771D02*
X565158Y159350D01*
X698425Y102907D02*
Y123917D01*
X601831Y129626D02*
Y141929D01*
X616536D02*
X622047Y136417D01*
X621949Y128642D02*
X622047Y128740D01*
Y136417D01*
X698721Y56595D02*
X705413D01*
X710039Y61221D01*
Y91366D01*
X816949Y149211D02*
Y181203D01*
X792717Y169035D02*
X801336Y160416D01*
X600457Y191669D02*
X601279Y190847D01*
X605028Y187098D01*
X675801Y181299D02*
Y192028D01*
Y193321D01*
X774083Y181203D02*
X792539D01*
X792717D01*
X674508Y159585D02*
Y180006D01*
X675801Y181299D01*
X565815Y62598D02*
X580315D01*
X571555Y108071D02*
X574213Y110728D01*
X610323Y110728D02*
X663169D01*
X676293Y36010D02*
Y79443D01*
X682185Y85335D01*
X568964Y185925D02*
X583464D01*
X674508Y159585D02*
X690786Y143307D01*
X706425Y123917D02*
X712122Y118220D01*
X754348Y123506D02*
X756004Y125162D01*
X774083Y149132D02*
Y181203D01*
X792717Y169035D02*
Y181203D01*
X654429Y123327D02*
Y125787D01*
X669882Y141240D01*
X678633Y131120D02*
X678637Y112697D01*
X678633Y131120D02*
Y140847D01*
X189961Y195669D02*
X205807Y211516D01*
X64453Y182480D02*
Y187807D01*
X189961Y187303D02*
Y195669D01*
X217012Y152953D02*
X221949D01*
X760583Y160416D02*
Y171012D01*
X743602Y187992D02*
Y208743D01*
X742717Y209628D02*
X743602Y208743D01*
X565815Y53937D02*
X580315D01*
X698650Y71313D02*
X699293Y70669D01*
X698650Y71313D02*
Y85335D01*
X568964Y177362D02*
X583366D01*
X698650Y181451D02*
Y197539D01*
X743602Y187992D02*
X760583Y171012D01*
X550486Y65545D02*
X557087Y72146D01*
X546661Y65545D02*
X550486D01*
D11*
X470807Y132604D02*
D03*
X480807D02*
D03*
X490807D02*
D03*
X471004Y96234D02*
D03*
X481004D02*
D03*
X491004D02*
D03*
D12*
X263337Y42296D02*
D03*
X281447D02*
D03*
X546661Y65545D02*
D03*
X281447Y185757D02*
D03*
X263337D02*
D03*
X297146Y42296D02*
D03*
X315256D02*
D03*
X315256Y186249D02*
D03*
X297146D02*
D03*
X547448Y146771D02*
D03*
X529338D02*
D03*
X528551Y65545D02*
D03*
D13*
X272392Y14546D02*
D03*
X537606Y37795D02*
D03*
X272392Y213507D02*
D03*
X306201Y14546D02*
D03*
X306201Y213999D02*
D03*
X538393Y174521D02*
D03*
D15*
X623760Y33342D02*
D03*
X637260D02*
D03*
X166800Y183169D02*
D03*
X830840Y71538D02*
D03*
X844340D02*
D03*
X613957Y197335D02*
D03*
X600457D02*
D03*
X64370Y183465D02*
D03*
X581791Y147835D02*
D03*
X568291D02*
D03*
X608284Y34941D02*
D03*
X594783D02*
D03*
X629610Y190157D02*
D03*
X643110D02*
D03*
X622961Y81595D02*
D03*
X636460D02*
D03*
X603035Y141929D02*
D03*
X616536D02*
D03*
X579323Y89665D02*
D03*
X592823D02*
D03*
X678637Y112697D02*
D03*
X665137D02*
D03*
X712122Y113681D02*
D03*
X698622D02*
D03*
X764267Y112286D02*
D03*
X750767D02*
D03*
X797767Y112581D02*
D03*
X784267D02*
D03*
X119587Y118405D02*
D03*
X425016Y56102D02*
D03*
X411516D02*
D03*
Y155413D02*
D03*
X425016D02*
D03*
X133087Y118405D02*
D03*
X153300Y183169D02*
D03*
X77870Y183465D02*
D03*
X844340Y41813D02*
D03*
X830840D02*
D03*
X816929Y160416D02*
D03*
X803429D02*
D03*
X774083D02*
D03*
X760583D02*
D03*
D16*
X125985Y33661D02*
D03*
X133985D02*
D03*
X127686Y108073D02*
D03*
X119686D02*
D03*
X144800Y152165D02*
D03*
X136800D02*
D03*
X838840Y51951D02*
D03*
X830840D02*
D03*
X828051Y100376D02*
D03*
X836051D02*
D03*
X828051Y110908D02*
D03*
X836051D02*
D03*
X828051Y121439D02*
D03*
X836051D02*
D03*
X828051Y131971D02*
D03*
X836051D02*
D03*
X584823Y119783D02*
D03*
X592823D02*
D03*
X31819Y152165D02*
D03*
X169713Y108563D02*
D03*
X77953Y193307D02*
D03*
X166800Y194095D02*
D03*
X792267Y123506D02*
D03*
X784267D02*
D03*
X764201D02*
D03*
X756201D02*
D03*
X679063Y123917D02*
D03*
X671063D02*
D03*
X706425Y94980D02*
D03*
X698425D02*
D03*
X766083Y149132D02*
D03*
X774083D02*
D03*
X817028D02*
D03*
X809028D02*
D03*
X613949Y187098D02*
D03*
X605949D02*
D03*
X613295Y215059D02*
D03*
X605295D02*
D03*
X583464Y185925D02*
D03*
X591465D02*
D03*
Y177264D02*
D03*
X583464D02*
D03*
X568964Y185925D02*
D03*
X560964D02*
D03*
Y177362D02*
D03*
X568964D02*
D03*
X602323Y119882D02*
D03*
X610323D02*
D03*
X602323Y110728D02*
D03*
X610323D02*
D03*
X592823Y110728D02*
D03*
X584823D02*
D03*
X557815Y62598D02*
D03*
X565815D02*
D03*
X557815Y53937D02*
D03*
X565815D02*
D03*
X588315D02*
D03*
X580315D02*
D03*
X580315Y62598D02*
D03*
X588315D02*
D03*
X623398Y14567D02*
D03*
X631398D02*
D03*
X623760Y43677D02*
D03*
X631760D02*
D03*
X690650Y197539D02*
D03*
X698650D02*
D03*
X690801Y143307D02*
D03*
X698801D02*
D03*
X690650Y85335D02*
D03*
X698650D02*
D03*
X686569Y30906D02*
D03*
X694569D02*
D03*
X677882Y141240D02*
D03*
X669882D02*
D03*
X698425Y123917D02*
D03*
X706425D02*
D03*
X813484Y124114D02*
D03*
X805484D02*
D03*
X783874Y92502D02*
D03*
X791874D02*
D03*
X99930Y108073D02*
D03*
X91930D02*
D03*
Y118701D02*
D03*
X60256Y29232D02*
D03*
X52256D02*
D03*
X60256Y19390D02*
D03*
X52256D02*
D03*
X422736Y15945D02*
D03*
X414736D02*
D03*
X443209Y56102D02*
D03*
X435209D02*
D03*
X428839Y84055D02*
D03*
X420839D02*
D03*
X133985Y43504D02*
D03*
X125985D02*
D03*
X435209Y155610D02*
D03*
X443209D02*
D03*
X420839Y183563D02*
D03*
X428839D02*
D03*
X424902Y213287D02*
D03*
X416902D02*
D03*
X119405Y152165D02*
D03*
X47953Y152461D02*
D03*
X55953D02*
D03*
X232775Y187303D02*
D03*
X28531Y60728D02*
D03*
X838840Y60613D02*
D03*
X830840D02*
D03*
X82213Y108366D02*
D03*
X36531Y60728D02*
D03*
X240775Y187303D02*
D03*
X111406Y152165D02*
D03*
X99930Y118701D02*
D03*
X158800Y194095D02*
D03*
X74213Y108366D02*
D03*
X69953Y193307D02*
D03*
X23819Y152165D02*
D03*
X161713Y108563D02*
D03*
D19*
X814026Y23859D02*
D03*
X804626Y27559D02*
D03*
Y20159D02*
D03*
X804084Y90511D02*
D03*
X813484Y86811D02*
D03*
Y94211D02*
D03*
X804675Y68133D02*
D03*
X814075Y64433D02*
D03*
Y71833D02*
D03*
Y42109D02*
D03*
X804675Y45809D02*
D03*
Y38409D02*
D03*
D21*
X529429Y158366D02*
D03*
D22*
X227756Y19685D02*
D03*
X743799Y20070D02*
D03*
D23*
X270248Y173650D02*
D03*
X311248D02*
D03*
Y132650D02*
D03*
X270248D02*
D03*
X380256Y198225D02*
D03*
X395256Y172244D02*
D03*
X380256Y146263D02*
D03*
X350256D02*
D03*
X335256Y172244D02*
D03*
X350256Y198225D02*
D03*
X380256Y79327D02*
D03*
X395256Y53347D02*
D03*
X380256Y27365D02*
D03*
X350256D02*
D03*
X335256Y53347D02*
D03*
X350256Y79327D02*
D03*
X311248Y94417D02*
D03*
X270248D02*
D03*
Y53417D02*
D03*
X311248D02*
D03*
D24*
X290748Y153150D02*
D03*
Y73917D02*
D03*
D25*
X365256Y172244D02*
D03*
X205807Y211516D02*
D03*
X774083Y209628D02*
D03*
X805448D02*
D03*
X232776Y211024D02*
D03*
X742717Y209628D02*
D03*
X365256Y53347D02*
D03*
D26*
X400000Y213287D02*
D03*
X441634Y15945D02*
D03*
D27*
X441181Y213287D02*
D03*
X400453Y15945D02*
D03*
D28*
X430354Y171496D02*
D03*
X425354Y166496D02*
D03*
X420354Y171496D02*
D03*
Y74646D02*
D03*
X425354Y69646D02*
D03*
X430354Y74646D02*
D03*
D29*
X553113Y192328D02*
D03*
X281695Y121280D02*
D03*
X553113Y202564D02*
D03*
X151083Y54331D02*
D03*
X151181Y64961D02*
D03*
X281695Y107190D02*
D03*
D30*
X525161Y192328D02*
D03*
X253743Y121280D02*
D03*
X179035Y54331D02*
D03*
X179134Y64961D02*
D03*
X525161Y202564D02*
D03*
X253743Y107190D02*
D03*
D31*
X167583Y20570D02*
D03*
X781201D02*
D03*
X427913Y101165D02*
D03*
Y126295D02*
D03*
X91062Y20570D02*
D03*
X116569Y20570D02*
D03*
X142076D02*
D03*
X762059Y20570D02*
D03*
D32*
X297342Y106693D02*
D03*
X387343D02*
D03*
X565158Y159153D02*
D03*
X718012Y81595D02*
D03*
X794587Y44865D02*
D03*
X794291Y68290D02*
D03*
X853839Y100026D02*
D03*
X811024Y110219D02*
D03*
X119193Y137697D02*
D03*
X565256Y72244D02*
D03*
X658394Y23031D02*
D03*
X658169Y92323D02*
D03*
X450689Y85827D02*
D03*
X509154Y152728D02*
D03*
X657185Y204429D02*
D03*
X641535Y131201D02*
D03*
X13976Y55264D02*
D03*
X185396Y154528D02*
D03*
X186024Y131398D02*
D03*
X72539Y136516D02*
D03*
X517618Y94685D02*
D03*
X717224Y163779D02*
D03*
X13976Y38480D02*
D03*
X297342Y120980D02*
D03*
X387343D02*
D03*
X722047Y35630D02*
D03*
D33*
X28405Y73996D02*
D03*
X38405D02*
D03*
X48406D02*
D03*
X58406D02*
D03*
X68405D02*
D03*
X78405D02*
D03*
X98405D02*
D03*
Y43996D02*
D03*
X88406D02*
D03*
X78405D02*
D03*
X68405D02*
D03*
X58406D02*
D03*
X48406D02*
D03*
X38405D02*
D03*
X88406Y73996D02*
D03*
X169686Y99235D02*
D03*
X149686D02*
D03*
X139686D02*
D03*
X129686D02*
D03*
X119686D02*
D03*
X109686D02*
D03*
X119686Y129235D02*
D03*
X129686D02*
D03*
X139686D02*
D03*
X159686D02*
D03*
X109686D02*
D03*
X149686D02*
D03*
X159686Y99235D02*
D03*
X77953Y142736D02*
D03*
X67953D02*
D03*
X57953D02*
D03*
X47953D02*
D03*
Y172736D02*
D03*
X57953D02*
D03*
X67953D02*
D03*
X708637Y102695D02*
D03*
X698637D02*
D03*
X688637D02*
D03*
X678637D02*
D03*
Y132695D02*
D03*
X698637D02*
D03*
X623457Y53425D02*
D03*
X613457D02*
D03*
X603457D02*
D03*
Y23425D02*
D03*
X613457D02*
D03*
X623457D02*
D03*
X633457D02*
D03*
X611831Y129626D02*
D03*
X601831D02*
D03*
X591831D02*
D03*
X581831D02*
D03*
Y159626D02*
D03*
X591831D02*
D03*
X601831D02*
D03*
X592823Y71488D02*
D03*
X602823D02*
D03*
X612823D02*
D03*
Y101488D02*
D03*
X602823D02*
D03*
X592823D02*
D03*
X582823D02*
D03*
X603957Y207854D02*
D03*
X613957D02*
D03*
X623957D02*
D03*
X633957D02*
D03*
Y177854D02*
D03*
X623957D02*
D03*
X613957D02*
D03*
X156800Y172736D02*
D03*
X146800D02*
D03*
X136800D02*
D03*
Y142736D02*
D03*
X146800D02*
D03*
X156800D02*
D03*
X166800D02*
D03*
X688637Y132695D02*
D03*
X783677D02*
D03*
X793677Y102695D02*
D03*
X783677D02*
D03*
X773677D02*
D03*
X763677D02*
D03*
Y132695D02*
D03*
X773677D02*
D03*
X42285Y129235D02*
D03*
X52285D02*
D03*
X22285D02*
D03*
X82285Y99235D02*
D03*
X72285D02*
D03*
X62285D02*
D03*
X52285D02*
D03*
X42285D02*
D03*
X32285D02*
D03*
X22285D02*
D03*
X32285Y129235D02*
D03*
X62285D02*
D03*
X72285D02*
D03*
D34*
X28405Y43996D02*
D03*
X169686Y129235D02*
D03*
X77953Y172736D02*
D03*
X708637Y132695D02*
D03*
X633457Y53425D02*
D03*
X611831Y159626D02*
D03*
X582823Y71488D02*
D03*
X603957Y177854D02*
D03*
X166800Y172736D02*
D03*
X793677Y132695D02*
D03*
X82285Y129235D02*
D03*
D35*
X22638Y15748D02*
D03*
X585472Y212598D02*
D03*
Y15748D02*
D03*
X22638Y212598D02*
D03*
X843504Y15748D02*
D03*
Y212598D02*
D03*
D36*
X443307Y67815D02*
D03*
X509154Y133465D02*
D03*
X480807Y147146D02*
D03*
X511024Y69587D02*
D03*
X837598Y91522D02*
D03*
X828058Y92329D02*
D03*
X792717Y144783D02*
D03*
X747714Y144707D02*
D03*
X708630Y157807D02*
D03*
X722424Y153723D02*
D03*
X747443Y81597D02*
D03*
X722557Y63565D02*
D03*
X756004Y130610D02*
D03*
X696654Y12402D02*
D03*
X830610Y31102D02*
D03*
X834391Y82288D02*
D03*
X840453Y82185D02*
D03*
X820472Y100376D02*
D03*
X836220Y140945D02*
D03*
X827854Y140650D02*
D03*
X698721Y56595D02*
D03*
X654429Y123327D02*
D03*
X698917Y168405D02*
D03*
X710335Y120177D02*
D03*
X698721Y78937D02*
D03*
X646161Y23819D02*
D03*
X643504Y14075D02*
D03*
X581791Y34843D02*
D03*
X529035Y55512D02*
D03*
X576279Y185827D02*
D03*
X572933Y119980D02*
D03*
X573327Y110433D02*
D03*
X624508Y110335D02*
D03*
X558268Y138386D02*
D03*
X698425Y190551D02*
D03*
X76870Y204724D02*
D03*
X144193Y85138D02*
D03*
X151083Y32972D02*
D03*
X250984Y187402D02*
D03*
X244685Y163779D02*
D03*
X244587Y138878D02*
D03*
X247835Y75787D02*
D03*
X281791Y175492D02*
D03*
X306004Y185728D02*
D03*
X325492D02*
D03*
X251673Y27461D02*
D03*
X306004Y41929D02*
D03*
X164665Y204823D02*
D03*
X206004Y167224D02*
D03*
Y151929D02*
D03*
X205906Y141339D02*
D03*
X206004Y125984D02*
D03*
X205906Y90059D02*
D03*
Y75453D02*
D03*
X205890Y66043D02*
D03*
X206004Y51279D02*
D03*
X144193Y49902D02*
D03*
X358366Y105217D02*
D03*
X429331Y33169D02*
D03*
X443012Y145177D02*
D03*
X260236Y152362D02*
D03*
X576083Y177264D02*
D03*
X720965Y108563D02*
D03*
X721260Y118701D02*
D03*
X821949Y16437D02*
D03*
X601279Y190847D02*
D03*
X629921Y216142D02*
D03*
X572835Y62500D02*
D03*
X573032Y54035D02*
D03*
X801968Y103051D02*
D03*
X791634Y83465D02*
D03*
X749606Y99803D02*
D03*
X782480Y144882D02*
D03*
X805484Y132508D02*
D03*
X675801Y192028D02*
D03*
X624803Y119882D02*
D03*
X719095Y135531D02*
D03*
X710138Y47638D02*
D03*
X504528Y104035D02*
D03*
X621949Y128642D02*
D03*
X676673Y79528D02*
D03*
D37*
X636713Y71161D02*
D03*
D60*
X329685Y120980D02*
D03*
X347008D02*
D03*
Y105512D02*
D03*
X329685D02*
D03*
D61*
X417110Y34449D02*
D03*
X413370Y26969D02*
D03*
X420851D02*
D03*
X421654Y195177D02*
D03*
X425394Y202658D02*
D03*
X417913D02*
D03*
D62*
X31791Y165059D02*
D03*
X18291D02*
D03*
X105905Y165157D02*
D03*
X119405D02*
D03*
D63*
X217488Y140846D02*
D03*
Y127346D02*
D03*
X217488Y166929D02*
D03*
X217028Y65650D02*
D03*
X217291Y90453D02*
D03*
X217488Y153429D02*
D03*
X217291Y76953D02*
D03*
X217028Y52150D02*
D03*
D64*
X69508Y27390D02*
D03*
Y19390D02*
D03*
X142962Y41661D02*
D03*
Y33661D02*
D03*
X227854Y140846D02*
D03*
X227658Y90453D02*
D03*
X227756Y66043D02*
D03*
X227854Y166858D02*
D03*
Y158858D02*
D03*
X227658Y82453D02*
D03*
X227756Y58043D02*
D03*
X227854Y132846D02*
D03*
D65*
X674902Y70965D02*
D03*
X699311D02*
D03*
X674884Y47661D02*
D03*
X699293D02*
D03*
X675801Y181299D02*
D03*
X700211D02*
D03*
X674392Y158291D02*
D03*
X698801D02*
D03*
X190256Y187303D02*
D03*
X214665D02*
D03*
X792539Y181203D02*
D03*
X816949D02*
D03*
X749673D02*
D03*
X774083D02*
D03*
D66*
X78405Y43996D02*
X88740Y33661D01*
X125985D01*
M02*
