G04 Layer_Color=8388736*
%FSLAX25Y25*%
%MOIN*%
G70*
G01*
G75*
%ADD47C,0.10800*%
%ADD54C,0.13800*%
%ADD56C,0.06800*%
%ADD77R,0.05800X0.21863*%
%ADD78R,0.06706X0.10642*%
%ADD79R,0.25800X0.20800*%
%ADD80O,0.08800X0.03200*%
%ADD81R,0.06800X0.06800*%
%ADD82R,0.05800X0.05800*%
%ADD83R,0.04600X0.05300*%
%ADD84O,0.03200X0.08800*%
%ADD85R,0.05300X0.04600*%
%ADD86C,0.12800*%
%ADD87C,0.15800*%
%ADD88C,0.18800*%
%ADD89C,0.08674*%
%ADD90R,0.08674X0.08674*%
%ADD91C,0.06312*%
%ADD92C,0.06706*%
%ADD93R,0.06706X0.06706*%
%ADD94C,0.07300*%
%ADD95O,0.08800X0.06800*%
%ADD96R,0.08800X0.06800*%
%ADD97C,0.20800*%
%ADD98C,0.04800*%
%ADD99C,0.04804*%
D47*
X270248Y173650D02*
D03*
X311248D02*
D03*
Y132650D02*
D03*
X270248D02*
D03*
X380256Y198225D02*
D03*
X395256Y172244D02*
D03*
X380256Y146263D02*
D03*
X350256D02*
D03*
X335256Y172244D02*
D03*
X350256Y198225D02*
D03*
X380256Y79327D02*
D03*
X395256Y53347D02*
D03*
X380256Y27365D02*
D03*
X350256D02*
D03*
X335256Y53347D02*
D03*
X350256Y79327D02*
D03*
X311248Y94417D02*
D03*
X270248D02*
D03*
Y53417D02*
D03*
X311248D02*
D03*
D54*
X167583Y20570D02*
D03*
X781201D02*
D03*
X427913Y101165D02*
D03*
Y126295D02*
D03*
X91062Y20570D02*
D03*
X116569Y20570D02*
D03*
X142076D02*
D03*
X762059Y20570D02*
D03*
D56*
X529429Y158366D02*
D03*
D77*
X470807Y96136D02*
D03*
X480807D02*
D03*
X490807D02*
D03*
X470807Y132776D02*
D03*
X480807D02*
D03*
X490807D02*
D03*
D78*
X281447Y42296D02*
D03*
X263337D02*
D03*
X281447Y185757D02*
D03*
X263337D02*
D03*
X297146D02*
D03*
X315256D02*
D03*
X546661Y65545D02*
D03*
X528551D02*
D03*
X529338Y146771D02*
D03*
X547448D02*
D03*
X315256Y42296D02*
D03*
X297146D02*
D03*
D79*
X272392Y14546D02*
D03*
X272392Y213507D02*
D03*
X306201D02*
D03*
X537606Y37795D02*
D03*
X538393Y174521D02*
D03*
X306201Y14546D02*
D03*
D80*
X217488Y140847D02*
D03*
Y135846D02*
D03*
Y130847D02*
D03*
X194488D02*
D03*
Y135846D02*
D03*
Y140847D02*
D03*
Y125847D02*
D03*
X217488D02*
D03*
Y166929D02*
D03*
Y161929D02*
D03*
Y156929D02*
D03*
X194488D02*
D03*
Y161929D02*
D03*
Y166929D02*
D03*
X217291Y90453D02*
D03*
Y85453D02*
D03*
Y80453D02*
D03*
X194291D02*
D03*
Y85453D02*
D03*
Y90453D02*
D03*
X217390Y66043D02*
D03*
Y61043D02*
D03*
Y56043D02*
D03*
X194390D02*
D03*
Y61043D02*
D03*
Y66043D02*
D03*
X194488Y151929D02*
D03*
X217488D02*
D03*
X194291Y75453D02*
D03*
X217291D02*
D03*
X194390Y51043D02*
D03*
X217390D02*
D03*
X532283Y111811D02*
D03*
Y106811D02*
D03*
Y101811D02*
D03*
Y96811D02*
D03*
X555283D02*
D03*
Y101811D02*
D03*
Y106811D02*
D03*
Y111811D02*
D03*
D81*
X160138Y43110D02*
D03*
X173638D02*
D03*
X728346Y163762D02*
D03*
X741846D02*
D03*
X660335Y61910D02*
D03*
X646835D02*
D03*
X659055Y174213D02*
D03*
X645555D02*
D03*
X741846Y53034D02*
D03*
X728346D02*
D03*
D82*
X120839Y53543D02*
D03*
X128839D02*
D03*
X120839Y63976D02*
D03*
X128839D02*
D03*
Y84842D02*
D03*
Y74410D02*
D03*
X120839D02*
D03*
X168138Y33071D02*
D03*
Y84842D02*
D03*
X160138D02*
D03*
X168138Y74508D02*
D03*
X781874Y91813D02*
D03*
X773874D02*
D03*
X731004Y99628D02*
D03*
X739004D02*
D03*
X650197Y73425D02*
D03*
X658197D02*
D03*
X648917Y194587D02*
D03*
X656917D02*
D03*
X658197Y42421D02*
D03*
X650197D02*
D03*
X657016Y142520D02*
D03*
X649016D02*
D03*
X708637Y94193D02*
D03*
X700637D02*
D03*
X146823Y204429D02*
D03*
X57953D02*
D03*
X804106Y68074D02*
D03*
X812106D02*
D03*
X804106Y44865D02*
D03*
X812106D02*
D03*
X527236Y80512D02*
D03*
X535236D02*
D03*
X547283D02*
D03*
X555283D02*
D03*
Y128347D02*
D03*
X547283D02*
D03*
X521457Y104232D02*
D03*
X739004Y63565D02*
D03*
Y153723D02*
D03*
X697173Y35039D02*
D03*
X689173D02*
D03*
X697173Y149508D02*
D03*
X689173D02*
D03*
X697173Y24803D02*
D03*
X689173D02*
D03*
X650197Y82677D02*
D03*
X658197D02*
D03*
X648917Y184843D02*
D03*
X656917D02*
D03*
X650197Y51772D02*
D03*
X658197D02*
D03*
X649016Y162402D02*
D03*
X657016D02*
D03*
Y152756D02*
D03*
X649016D02*
D03*
X658197Y32972D02*
D03*
X650197D02*
D03*
X154800Y183858D02*
D03*
X146800D02*
D03*
X146850Y193898D02*
D03*
X57953D02*
D03*
X65953Y183858D02*
D03*
X57953D02*
D03*
X611122Y218089D02*
D03*
X603122D02*
D03*
X592520Y120079D02*
D03*
X600520D02*
D03*
Y111417D02*
D03*
X592520D02*
D03*
X625406Y14567D02*
D03*
X633406D02*
D03*
X689173Y139862D02*
D03*
X697173D02*
D03*
X739004Y90613D02*
D03*
X731004D02*
D03*
Y81597D02*
D03*
X739004D02*
D03*
Y108644D02*
D03*
X731004Y153723D02*
D03*
Y63565D02*
D03*
Y135691D02*
D03*
X739004D02*
D03*
X731004Y72581D02*
D03*
X739004D02*
D03*
X731004Y144707D02*
D03*
X227756Y56595D02*
D03*
X235756D02*
D03*
X227236Y156398D02*
D03*
X235236D02*
D03*
X226842Y80118D02*
D03*
X234842D02*
D03*
X227138Y130807D02*
D03*
X235138D02*
D03*
X526772Y128347D02*
D03*
X534772D02*
D03*
X154823Y204429D02*
D03*
X65953D02*
D03*
X154850Y193898D02*
D03*
X160138Y33071D02*
D03*
Y74508D02*
D03*
X65953Y193898D02*
D03*
X120839Y84842D02*
D03*
X513457Y104232D02*
D03*
X731004Y108644D02*
D03*
X739004Y144707D02*
D03*
Y117660D02*
D03*
X731004D02*
D03*
X739004Y126675D02*
D03*
X731004D02*
D03*
D83*
X805355Y170916D02*
D03*
X809055Y161516D02*
D03*
X801655D02*
D03*
X775707Y154183D02*
D03*
X772007Y161467D02*
D03*
X805355Y154183D02*
D03*
X801655Y178248D02*
D03*
X772007Y144783D02*
D03*
X801655D02*
D03*
X805355Y187648D02*
D03*
X768307Y170867D02*
D03*
X775707D02*
D03*
X772106Y178150D02*
D03*
X768405Y187550D02*
D03*
X775806D02*
D03*
X809055Y178248D02*
D03*
X768307Y154183D02*
D03*
X809055Y144783D02*
D03*
X119405Y165157D02*
D03*
X115706Y174557D02*
D03*
X123106D02*
D03*
X119405Y182578D02*
D03*
X115706Y191978D02*
D03*
X123106D02*
D03*
X119405Y199360D02*
D03*
X115706Y208760D02*
D03*
X123106D02*
D03*
D84*
X840840Y44778D02*
D03*
X835840D02*
D03*
X830840D02*
D03*
X825840D02*
D03*
Y67778D02*
D03*
X830840D02*
D03*
X835840D02*
D03*
X840840D02*
D03*
X704293Y47662D02*
D03*
X699293D02*
D03*
X694293D02*
D03*
X689293D02*
D03*
Y70662D02*
D03*
X694293D02*
D03*
X699293D02*
D03*
X704293D02*
D03*
Y157807D02*
D03*
X699293D02*
D03*
X694293D02*
D03*
X689293D02*
D03*
Y180807D02*
D03*
X694293D02*
D03*
X699293D02*
D03*
X704293D02*
D03*
X843058Y123026D02*
D03*
X838058D02*
D03*
X833058D02*
D03*
X828058D02*
D03*
Y100026D02*
D03*
X833058D02*
D03*
X838058D02*
D03*
X843058D02*
D03*
D85*
X235925Y138761D02*
D03*
Y146161D02*
D03*
X226525Y142461D02*
D03*
X236417Y86891D02*
D03*
Y94291D02*
D03*
X227017Y90591D02*
D03*
X235728Y62777D02*
D03*
Y70177D02*
D03*
X226328Y66477D02*
D03*
X226525Y167560D02*
D03*
X235925Y171260D02*
D03*
Y163860D02*
D03*
D86*
X227756Y19685D02*
D03*
X743799Y20070D02*
D03*
D87*
X290748Y153150D02*
D03*
Y73917D02*
D03*
D88*
X365256Y172244D02*
D03*
X205807Y211516D02*
D03*
X774083Y209628D02*
D03*
X805448D02*
D03*
X232776Y211024D02*
D03*
X742717Y209628D02*
D03*
X365256Y53347D02*
D03*
D89*
X400000Y213287D02*
D03*
X441634Y15945D02*
D03*
D90*
X441181Y213287D02*
D03*
X400453Y15945D02*
D03*
D91*
X430354Y171496D02*
D03*
X425354Y166496D02*
D03*
X420354Y171496D02*
D03*
Y74646D02*
D03*
X425354Y69646D02*
D03*
X430354Y74646D02*
D03*
D92*
X553113Y192328D02*
D03*
X281695Y121280D02*
D03*
X553113Y202564D02*
D03*
X151083Y54331D02*
D03*
X151181Y64961D02*
D03*
X281695Y107190D02*
D03*
D93*
X525161Y192328D02*
D03*
X253743Y121280D02*
D03*
X179035Y54331D02*
D03*
X179134Y64961D02*
D03*
X525161Y202564D02*
D03*
X253743Y107190D02*
D03*
D94*
X297342Y106693D02*
D03*
X387343D02*
D03*
X565158Y159153D02*
D03*
X718012Y81595D02*
D03*
X794587Y44865D02*
D03*
X794291Y68290D02*
D03*
X853839Y100026D02*
D03*
X811024Y110219D02*
D03*
X119193Y137697D02*
D03*
X565256Y72244D02*
D03*
X658394Y23031D02*
D03*
X658169Y92323D02*
D03*
X450689Y85827D02*
D03*
X509154Y152728D02*
D03*
X657185Y204429D02*
D03*
X641535Y131201D02*
D03*
X13976Y55264D02*
D03*
X185396Y154528D02*
D03*
X186024Y131398D02*
D03*
X72539Y136516D02*
D03*
X517618Y94685D02*
D03*
X717224Y163779D02*
D03*
X13976Y38480D02*
D03*
X297342Y120980D02*
D03*
X387343D02*
D03*
X722047Y35630D02*
D03*
D95*
X28405Y73996D02*
D03*
X38405D02*
D03*
X48406D02*
D03*
X58406D02*
D03*
X68405D02*
D03*
X78405D02*
D03*
X98405D02*
D03*
Y43996D02*
D03*
X88406D02*
D03*
X78405D02*
D03*
X68405D02*
D03*
X58406D02*
D03*
X48406D02*
D03*
X38405D02*
D03*
X88406Y73996D02*
D03*
X169686Y99235D02*
D03*
X149686D02*
D03*
X139686D02*
D03*
X129686D02*
D03*
X119686D02*
D03*
X109686D02*
D03*
X119686Y129235D02*
D03*
X129686D02*
D03*
X139686D02*
D03*
X159686D02*
D03*
X109686D02*
D03*
X149686D02*
D03*
X159686Y99235D02*
D03*
X77953Y142736D02*
D03*
X67953D02*
D03*
X57953D02*
D03*
X47953D02*
D03*
Y172736D02*
D03*
X57953D02*
D03*
X67953D02*
D03*
X708637Y102695D02*
D03*
X698637D02*
D03*
X688637D02*
D03*
X678637D02*
D03*
Y132695D02*
D03*
X698637D02*
D03*
X623457Y53425D02*
D03*
X613457D02*
D03*
X603457D02*
D03*
Y23425D02*
D03*
X613457D02*
D03*
X623457D02*
D03*
X633457D02*
D03*
X611831Y129626D02*
D03*
X601831D02*
D03*
X591831D02*
D03*
X581831D02*
D03*
Y159626D02*
D03*
X591831D02*
D03*
X601831D02*
D03*
X592823Y71488D02*
D03*
X602823D02*
D03*
X612823D02*
D03*
Y101488D02*
D03*
X602823D02*
D03*
X592823D02*
D03*
X582823D02*
D03*
X603957Y207854D02*
D03*
X613957D02*
D03*
X623957D02*
D03*
X633957D02*
D03*
Y177854D02*
D03*
X623957D02*
D03*
X613957D02*
D03*
X156800Y172736D02*
D03*
X146800D02*
D03*
X136800D02*
D03*
Y142736D02*
D03*
X146800D02*
D03*
X156800D02*
D03*
X166800D02*
D03*
X688637Y132695D02*
D03*
X783677D02*
D03*
X793677Y102695D02*
D03*
X783677D02*
D03*
X773677D02*
D03*
X763677D02*
D03*
Y132695D02*
D03*
X773677D02*
D03*
X42285Y129235D02*
D03*
X52285D02*
D03*
X22285D02*
D03*
X82285Y99235D02*
D03*
X72285D02*
D03*
X62285D02*
D03*
X52285D02*
D03*
X42285D02*
D03*
X32285D02*
D03*
X22285D02*
D03*
X32285Y129235D02*
D03*
X62285D02*
D03*
X72285D02*
D03*
D96*
X28405Y43996D02*
D03*
X169686Y129235D02*
D03*
X77953Y172736D02*
D03*
X708637Y132695D02*
D03*
X633457Y53425D02*
D03*
X611831Y159626D02*
D03*
X582823Y71488D02*
D03*
X603957Y177854D02*
D03*
X166800Y172736D02*
D03*
X793677Y132695D02*
D03*
X82285Y129235D02*
D03*
D97*
X22638Y15748D02*
D03*
X585472Y212598D02*
D03*
Y15748D02*
D03*
X22638Y212598D02*
D03*
X843504Y15748D02*
D03*
Y212598D02*
D03*
D98*
X443307Y67815D02*
D03*
X509154Y133465D02*
D03*
X480807Y147146D02*
D03*
X511024Y69587D02*
D03*
X837598Y91522D02*
D03*
X828058Y92329D02*
D03*
X792717Y144783D02*
D03*
X747714Y144707D02*
D03*
X708630Y157807D02*
D03*
X722424Y153723D02*
D03*
X747443Y81597D02*
D03*
X722557Y63565D02*
D03*
X756004Y130610D02*
D03*
X696654Y12402D02*
D03*
X830610Y31102D02*
D03*
X834391Y82288D02*
D03*
X840453Y82185D02*
D03*
X820472Y100376D02*
D03*
X836220Y140945D02*
D03*
X827854Y140650D02*
D03*
X698721Y56595D02*
D03*
X654429Y123327D02*
D03*
X698917Y168405D02*
D03*
X710335Y120177D02*
D03*
X698721Y78937D02*
D03*
X646161Y23819D02*
D03*
X643504Y14075D02*
D03*
X581791Y34843D02*
D03*
X529035Y55512D02*
D03*
X576279Y185827D02*
D03*
X572933Y119980D02*
D03*
X573327Y110433D02*
D03*
X624508Y110335D02*
D03*
X558268Y138386D02*
D03*
X698425Y190551D02*
D03*
X76870Y204724D02*
D03*
X144193Y85138D02*
D03*
X151083Y32972D02*
D03*
X250984Y187402D02*
D03*
X244685Y163779D02*
D03*
X244587Y138878D02*
D03*
X247835Y75787D02*
D03*
X281791Y175492D02*
D03*
X306004Y185728D02*
D03*
X325492D02*
D03*
X251673Y27461D02*
D03*
X306004Y41929D02*
D03*
X164665Y204823D02*
D03*
X206004Y167224D02*
D03*
Y151929D02*
D03*
X205906Y141339D02*
D03*
X206004Y125984D02*
D03*
X205906Y90059D02*
D03*
Y75453D02*
D03*
X205890Y66043D02*
D03*
X206004Y51279D02*
D03*
X144193Y49902D02*
D03*
X358366Y105217D02*
D03*
X429331Y33169D02*
D03*
X443012Y145177D02*
D03*
X260236Y152362D02*
D03*
X576083Y177264D02*
D03*
X720965Y108563D02*
D03*
X721260Y118701D02*
D03*
X821949Y16437D02*
D03*
X601279Y190847D02*
D03*
X629921Y216142D02*
D03*
X572835Y62500D02*
D03*
X573032Y54035D02*
D03*
X801968Y103051D02*
D03*
X791634Y83465D02*
D03*
X749606Y99803D02*
D03*
X782480Y144882D02*
D03*
X805484Y132508D02*
D03*
X675801Y192028D02*
D03*
X624803Y119882D02*
D03*
X719095Y135531D02*
D03*
X710138Y47638D02*
D03*
X504528Y104035D02*
D03*
X621949Y128642D02*
D03*
X676673Y79528D02*
D03*
D99*
X636713Y71161D02*
D03*
M02*
