G04 Layer_Color=128*
%FSLAX25Y25*%
%MOIN*%
G70*
G01*
G75*
%ADD11R,0.05000X0.21063*%
%ADD12R,0.05906X0.09843*%
%ADD13R,0.25000X0.20000*%
%ADD15R,0.06000X0.06000*%
%ADD16R,0.05000X0.05000*%
%ADD19R,0.04500X0.03800*%
%ADD60R,0.07200X0.11000*%
%ADD61R,0.03100X0.05000*%
%ADD62R,0.06000X0.10000*%
%ADD63R,0.06000X0.06000*%
%ADD64R,0.05000X0.05000*%
%ADD65R,0.11417X0.09843*%
D11*
X470807Y132604D02*
D03*
X480807D02*
D03*
X490807D02*
D03*
X471004Y96234D02*
D03*
X481004D02*
D03*
X491004D02*
D03*
D12*
X263337Y42296D02*
D03*
X281447D02*
D03*
X546661Y65545D02*
D03*
X281447Y185757D02*
D03*
X263337D02*
D03*
X297146Y42296D02*
D03*
X315256D02*
D03*
X315256Y186249D02*
D03*
X297146D02*
D03*
X547448Y146771D02*
D03*
X529338D02*
D03*
X528551Y65545D02*
D03*
D13*
X272392Y14546D02*
D03*
X537606Y37795D02*
D03*
X272392Y213507D02*
D03*
X306201Y14546D02*
D03*
X306201Y213999D02*
D03*
X538393Y174521D02*
D03*
D15*
X623760Y33342D02*
D03*
X637260D02*
D03*
X166800Y183169D02*
D03*
X830840Y71538D02*
D03*
X844340D02*
D03*
X613957Y197335D02*
D03*
X600457D02*
D03*
X64370Y183465D02*
D03*
X581791Y147835D02*
D03*
X568291D02*
D03*
X608284Y34941D02*
D03*
X594783D02*
D03*
X629610Y190157D02*
D03*
X643110D02*
D03*
X622961Y81595D02*
D03*
X636460D02*
D03*
X603035Y141929D02*
D03*
X616536D02*
D03*
X579323Y89665D02*
D03*
X592823D02*
D03*
X678637Y112697D02*
D03*
X665137D02*
D03*
X712122Y113681D02*
D03*
X698622D02*
D03*
X764267Y112286D02*
D03*
X750767D02*
D03*
X797767Y112581D02*
D03*
X784267D02*
D03*
X119587Y118405D02*
D03*
X425016Y56102D02*
D03*
X411516D02*
D03*
Y155413D02*
D03*
X425016D02*
D03*
X133087Y118405D02*
D03*
X153300Y183169D02*
D03*
X77870Y183465D02*
D03*
X844340Y41813D02*
D03*
X830840D02*
D03*
X816929Y160416D02*
D03*
X803429D02*
D03*
X774083D02*
D03*
X760583D02*
D03*
D16*
X125985Y33661D02*
D03*
X133985D02*
D03*
X127686Y108073D02*
D03*
X119686D02*
D03*
X144800Y152165D02*
D03*
X136800D02*
D03*
X838840Y51951D02*
D03*
X830840D02*
D03*
X828051Y100376D02*
D03*
X836051D02*
D03*
X828051Y110908D02*
D03*
X836051D02*
D03*
X828051Y121439D02*
D03*
X836051D02*
D03*
X828051Y131971D02*
D03*
X836051D02*
D03*
X584823Y119783D02*
D03*
X592823D02*
D03*
X31819Y152165D02*
D03*
X169713Y108563D02*
D03*
X77953Y193307D02*
D03*
X166800Y194095D02*
D03*
X792267Y123506D02*
D03*
X784267D02*
D03*
X764201D02*
D03*
X756201D02*
D03*
X679063Y123917D02*
D03*
X671063D02*
D03*
X706425Y94980D02*
D03*
X698425D02*
D03*
X766083Y149132D02*
D03*
X774083D02*
D03*
X817028D02*
D03*
X809028D02*
D03*
X613949Y187098D02*
D03*
X605949D02*
D03*
X613295Y215059D02*
D03*
X605295D02*
D03*
X583464Y185925D02*
D03*
X591465D02*
D03*
Y177264D02*
D03*
X583464D02*
D03*
X568964Y185925D02*
D03*
X560964D02*
D03*
Y177362D02*
D03*
X568964D02*
D03*
X602323Y119882D02*
D03*
X610323D02*
D03*
X602323Y110728D02*
D03*
X610323D02*
D03*
X592823Y110728D02*
D03*
X584823D02*
D03*
X557815Y62598D02*
D03*
X565815D02*
D03*
X557815Y53937D02*
D03*
X565815D02*
D03*
X588315D02*
D03*
X580315D02*
D03*
X580315Y62598D02*
D03*
X588315D02*
D03*
X623398Y14567D02*
D03*
X631398D02*
D03*
X623760Y43677D02*
D03*
X631760D02*
D03*
X690650Y197539D02*
D03*
X698650D02*
D03*
X690801Y143307D02*
D03*
X698801D02*
D03*
X690650Y85335D02*
D03*
X698650D02*
D03*
X686569Y30906D02*
D03*
X694569D02*
D03*
X677882Y141240D02*
D03*
X669882D02*
D03*
X698425Y123917D02*
D03*
X706425D02*
D03*
X813484Y124114D02*
D03*
X805484D02*
D03*
X783874Y92502D02*
D03*
X791874D02*
D03*
X99930Y108073D02*
D03*
X91930D02*
D03*
Y118701D02*
D03*
X60256Y29232D02*
D03*
X52256D02*
D03*
X60256Y19390D02*
D03*
X52256D02*
D03*
X422736Y15945D02*
D03*
X414736D02*
D03*
X443209Y56102D02*
D03*
X435209D02*
D03*
X428839Y84055D02*
D03*
X420839D02*
D03*
X133985Y43504D02*
D03*
X125985D02*
D03*
X435209Y155610D02*
D03*
X443209D02*
D03*
X420839Y183563D02*
D03*
X428839D02*
D03*
X424902Y213287D02*
D03*
X416902D02*
D03*
X119405Y152165D02*
D03*
X47953Y152461D02*
D03*
X55953D02*
D03*
X232775Y187303D02*
D03*
X28531Y60728D02*
D03*
X838840Y60613D02*
D03*
X830840D02*
D03*
X82213Y108366D02*
D03*
X36531Y60728D02*
D03*
X240775Y187303D02*
D03*
X111406Y152165D02*
D03*
X99930Y118701D02*
D03*
X158800Y194095D02*
D03*
X74213Y108366D02*
D03*
X69953Y193307D02*
D03*
X23819Y152165D02*
D03*
X161713Y108563D02*
D03*
D19*
X814026Y23859D02*
D03*
X804626Y27559D02*
D03*
Y20159D02*
D03*
X804084Y90511D02*
D03*
X813484Y86811D02*
D03*
Y94211D02*
D03*
X804675Y68133D02*
D03*
X814075Y64433D02*
D03*
Y71833D02*
D03*
Y42109D02*
D03*
X804675Y45809D02*
D03*
Y38409D02*
D03*
D60*
X329685Y120980D02*
D03*
X347008D02*
D03*
Y105512D02*
D03*
X329685D02*
D03*
D61*
X417110Y34449D02*
D03*
X413370Y26969D02*
D03*
X420851D02*
D03*
X421654Y195177D02*
D03*
X425394Y202658D02*
D03*
X417913D02*
D03*
D62*
X31791Y165059D02*
D03*
X18291D02*
D03*
X105905Y165157D02*
D03*
X119405D02*
D03*
D63*
X217488Y140846D02*
D03*
Y127346D02*
D03*
X217488Y166929D02*
D03*
X217028Y65650D02*
D03*
X217291Y90453D02*
D03*
X217488Y153429D02*
D03*
X217291Y76953D02*
D03*
X217028Y52150D02*
D03*
D64*
X69508Y27390D02*
D03*
Y19390D02*
D03*
X142962Y41661D02*
D03*
Y33661D02*
D03*
X227854Y140846D02*
D03*
X227658Y90453D02*
D03*
X227756Y66043D02*
D03*
X227854Y166858D02*
D03*
Y158858D02*
D03*
X227658Y82453D02*
D03*
X227756Y58043D02*
D03*
X227854Y132846D02*
D03*
D65*
X674902Y70965D02*
D03*
X699311D02*
D03*
X674884Y47661D02*
D03*
X699293D02*
D03*
X675801Y181299D02*
D03*
X700211D02*
D03*
X674392Y158291D02*
D03*
X698801D02*
D03*
X190256Y187303D02*
D03*
X214665D02*
D03*
X792539Y181203D02*
D03*
X816949D02*
D03*
X749673D02*
D03*
X774083D02*
D03*
M02*
