G04 Layer_Physical_Order=1*
G04 Layer_Color=255*
%FSLAX25Y25*%
%MOIN*%
G70*
G01*
G75*
%ADD10C,0.04000*%
%ADD11R,0.05000X0.21063*%
%ADD12R,0.05906X0.09843*%
%ADD13R,0.25000X0.20000*%
%ADD14O,0.08000X0.02400*%
%ADD15R,0.06000X0.06000*%
%ADD16R,0.05000X0.05000*%
%ADD17R,0.03800X0.04500*%
%ADD18O,0.02400X0.08000*%
%ADD19R,0.04500X0.03800*%
%ADD20C,0.03000*%
%ADD21C,0.06000*%
%ADD22C,0.12000*%
%ADD23C,0.10000*%
%ADD24C,0.15000*%
%ADD25C,0.18000*%
%ADD26C,0.07874*%
%ADD27R,0.07874X0.07874*%
%ADD28C,0.05512*%
%ADD29C,0.05906*%
%ADD30R,0.05906X0.05906*%
%ADD31C,0.13000*%
%ADD32C,0.06500*%
%ADD33O,0.08000X0.06000*%
%ADD34R,0.08000X0.06000*%
%ADD35C,0.20000*%
%ADD36C,0.04000*%
%ADD37C,0.04004*%
G36*
X436458Y106882D02*
X436063Y106451D01*
X435711Y105990D01*
X435400Y105499D01*
X435132Y104979D01*
X434907Y104429D01*
X434723Y103849D01*
X434582Y103239D01*
X434483Y102599D01*
X434427Y101930D01*
X434413Y101230D01*
X427978Y107665D01*
X428678Y107679D01*
X429347Y107735D01*
X429987Y107834D01*
X430596Y107975D01*
X431177Y108159D01*
X431727Y108384D01*
X432247Y108652D01*
X432738Y108963D01*
X433199Y109315D01*
X433630Y109711D01*
X436458Y106882D01*
D02*
G37*
G36*
X783226Y30071D02*
X783303Y29495D01*
X783430Y28929D01*
X783609Y28371D01*
X783838Y27823D01*
X784119Y27283D01*
X784450Y26752D01*
X784833Y26230D01*
X785266Y25717D01*
X785751Y25212D01*
X776651D01*
X777135Y25717D01*
X777569Y26230D01*
X777951Y26752D01*
X778283Y27283D01*
X778563Y27823D01*
X778793Y28371D01*
X778971Y28929D01*
X779099Y29495D01*
X779175Y30071D01*
X779201Y30655D01*
X783201D01*
X783226Y30071D01*
D02*
G37*
G36*
X764084D02*
X764161Y29495D01*
X764289Y28929D01*
X764467Y28371D01*
X764697Y27823D01*
X764977Y27283D01*
X765309Y26752D01*
X765691Y26230D01*
X766124Y25717D01*
X766609Y25212D01*
X757509D01*
X757994Y25717D01*
X758427Y26230D01*
X758810Y26752D01*
X759141Y27283D01*
X759421Y27823D01*
X759651Y28371D01*
X759830Y28929D01*
X759957Y29495D01*
X760034Y30071D01*
X760059Y30655D01*
X764059D01*
X764084Y30071D01*
D02*
G37*
G36*
X751730Y208369D02*
X751911Y206243D01*
X752078Y205285D01*
X752296Y204398D01*
X752566Y203582D01*
X752886Y202835D01*
X753258Y202160D01*
X753681Y201554D01*
X754155Y201019D01*
X751326Y198191D01*
X750792Y198665D01*
X750186Y199088D01*
X749510Y199460D01*
X748764Y199780D01*
X747948Y200049D01*
X747060Y200268D01*
X746103Y200435D01*
X745075Y200551D01*
X743976Y200615D01*
X742807Y200629D01*
X751717Y209538D01*
X751730Y208369D01*
D02*
G37*
G36*
X810931Y202365D02*
X809555Y200734D01*
X808996Y199938D01*
X808523Y199157D01*
X808136Y198389D01*
X807835Y197634D01*
X807620Y196894D01*
X807491Y196167D01*
X807448Y195453D01*
X803448D01*
X803405Y196167D01*
X803276Y196894D01*
X803061Y197634D01*
X802760Y198389D01*
X802373Y199157D01*
X801900Y199938D01*
X801341Y200734D01*
X800696Y201542D01*
X799965Y202365D01*
X799148Y203201D01*
X811748D01*
X810931Y202365D01*
D02*
G37*
G36*
X434427Y125531D02*
X434483Y124862D01*
X434582Y124222D01*
X434723Y123612D01*
X434907Y123032D01*
X435132Y122482D01*
X435400Y121961D01*
X435711Y121471D01*
X436063Y121010D01*
X436458Y120579D01*
X433630Y117750D01*
X433199Y118145D01*
X432738Y118498D01*
X432247Y118808D01*
X431727Y119076D01*
X431177Y119302D01*
X430596Y119485D01*
X429987Y119626D01*
X429347Y119725D01*
X428678Y119782D01*
X427978Y119796D01*
X434413Y126230D01*
X434427Y125531D01*
D02*
G37*
D10*
X695632Y151049D02*
G03*
X694293Y153735I-6459J-1541D01*
G01*
X695813Y149508D02*
G03*
X695632Y151049I-6640J0D01*
G01*
X436098Y118110D02*
X476968D01*
X427913Y126295D02*
X436098Y118110D01*
X476968D02*
X480807Y121949D01*
X438264Y111516D02*
X475984D01*
X427913Y101165D02*
X438264Y111516D01*
X475984D02*
X480807Y106693D01*
X459646Y94784D02*
X467880D01*
X450689Y85827D02*
X459646Y94784D01*
X480217Y72146D02*
X490945Y82874D01*
X447638Y72146D02*
X480217D01*
X443307Y67815D02*
X447638Y72146D01*
X480807Y121949D02*
Y132776D01*
Y96136D02*
Y106693D01*
X470807Y132776D02*
Y140709D01*
X466339Y145177D02*
X470807Y140709D01*
X443012Y145177D02*
X466339D01*
X516311Y69587D02*
X527236Y80512D01*
X511024Y69587D02*
X516311D01*
X520177Y134941D02*
X526772Y128347D01*
X520177Y134941D02*
Y156004D01*
X516535Y159646D02*
X520177Y156004D01*
X487697Y159646D02*
X516535D01*
X480807Y152756D02*
X487697Y159646D01*
X480807Y147146D02*
Y152756D01*
X496527Y152728D02*
X509154D01*
X490807Y147008D02*
X496527Y152728D01*
X794587Y44865D02*
X804106D01*
X812192Y44778D02*
X825840D01*
X830610Y31102D02*
X830840Y31332D01*
Y44778D01*
X843058Y110643D02*
Y123026D01*
X838058Y105643D02*
X843058Y110643D01*
X838058Y100026D02*
Y105643D01*
X833058Y96063D02*
X837598Y91522D01*
X833058Y96063D02*
Y100026D01*
X828058Y92329D02*
Y100026D01*
X838058Y116306D02*
Y123026D01*
X831971Y110219D02*
X838058Y116306D01*
X811024Y110219D02*
X831971D01*
X794507Y68074D02*
X804106D01*
X835840Y67778D02*
X840840D01*
X830840D02*
Y78736D01*
X834391Y82288D01*
X840840Y67778D02*
Y81798D01*
X845763Y44778D02*
X853839Y52854D01*
Y100026D01*
X843058D02*
X853839D01*
X843058Y123026D02*
Y134108D01*
X836220Y140945D02*
X843058Y134108D01*
X833058Y123026D02*
Y137782D01*
X836220Y140945D01*
X827854Y123229D02*
Y140650D01*
X792717Y144783D02*
X801655D01*
Y157884D02*
X805355Y154183D01*
X801655Y157884D02*
Y161516D01*
Y174616D02*
X805355Y170916D01*
X801655Y174616D02*
Y178248D01*
X805448Y187741D02*
Y209628D01*
X775707Y154183D02*
Y157766D01*
X772007Y161467D02*
X775707Y157766D01*
X775707Y170867D02*
Y174548D01*
X772106Y178150D02*
X775707Y174548D01*
X775806Y187550D02*
Y188542D01*
X771548Y192800D02*
X775806Y188542D01*
X759546Y192800D02*
X771548D01*
X742717Y209628D02*
X759546Y192800D01*
X710532Y149508D02*
X716924Y155900D01*
X697173Y149508D02*
X710532D01*
X704293Y157807D02*
X708630D01*
X698917Y168405D02*
X699293Y168029D01*
Y157807D02*
Y168029D01*
X694293Y173029D02*
X698917Y168405D01*
X694293Y173029D02*
Y180807D01*
X689293D02*
Y188266D01*
X698425Y190551D02*
X699293Y189683D01*
Y180807D02*
Y189683D01*
X704293Y180807D02*
Y195805D01*
X695669Y204429D02*
X704293Y195805D01*
X657185Y204429D02*
X695669D01*
X739004Y144707D02*
X747714D01*
X717242Y156319D02*
Y163762D01*
X716924Y156001D02*
X717242Y156319D01*
X716924Y155900D02*
Y156001D01*
X722424Y153723D02*
X731004D01*
X697173Y139862D02*
X712795D01*
X716966Y135691D01*
X739004Y81597D02*
X747443D01*
X722557Y63565D02*
X731004D01*
X793677Y96728D02*
Y102695D01*
X788762Y91813D02*
X793677Y96728D01*
X781874Y91813D02*
X788762D01*
X773677Y92010D02*
Y102695D01*
X739004Y108695D02*
Y117660D01*
X773162Y102695D02*
X773677D01*
X767162Y108695D02*
X773162Y102695D01*
X739004Y108644D02*
Y108695D01*
Y126675D02*
Y135691D01*
X766510Y139862D02*
X773677Y132695D01*
X754921Y139862D02*
X766510D01*
X750750Y135691D02*
X754921Y139862D01*
X739004Y135691D02*
X750750D01*
X739004Y153723D02*
X741846Y156565D01*
Y163762D01*
X717242D02*
X728346D01*
X731004Y135691D02*
Y144707D01*
Y117660D02*
Y126675D01*
Y90613D02*
Y99628D01*
Y81597D02*
Y90613D01*
X739004Y81597D02*
Y90613D01*
Y72581D02*
Y81597D01*
X731004Y63565D02*
Y72581D01*
X739004Y63565D02*
X741846Y60723D01*
Y53034D02*
Y60723D01*
X718012Y81595D02*
X731002D01*
X708637Y94193D02*
Y102695D01*
X688637Y102695D02*
X697140Y94193D01*
X700637D01*
X699609Y85827D02*
X704293Y81142D01*
X677165Y85827D02*
X699609D01*
X670669Y92323D02*
X677165Y85827D01*
X689293Y70662D02*
Y76553D01*
X686319Y79528D02*
X689293Y76553D01*
X658169Y92323D02*
X670669D01*
X676673Y79528D02*
X686319D01*
X699293Y70662D02*
Y78364D01*
X704293Y47662D02*
X709819D01*
X694293Y61022D02*
X698721Y56595D01*
X699293Y56022D01*
Y47662D02*
Y56022D01*
X694293Y61022D02*
Y70662D01*
X696654Y12402D02*
X697173Y12921D01*
Y24803D01*
X722047Y35630D02*
X728445Y42028D01*
X721457Y35039D02*
X722047Y35630D01*
X728445Y42028D02*
Y52935D01*
X697173Y35039D02*
X721457D01*
X697173D02*
Y38358D01*
X694293Y41238D02*
X697173Y38358D01*
X694293Y41238D02*
Y47662D01*
X633457Y14618D02*
Y23425D01*
X633406Y14567D02*
X633457Y14618D01*
X617126Y14567D02*
X625406D01*
X613457Y18236D02*
X617126Y14567D01*
X613457Y18236D02*
Y23425D01*
X658197Y23228D02*
Y32972D01*
Y42421D01*
Y51772D02*
X660335Y53909D01*
Y61910D01*
X650197Y42421D02*
Y51772D01*
Y32972D02*
Y42421D01*
X623457Y43866D02*
Y53425D01*
X704293Y70662D02*
Y81142D01*
X646835Y61910D02*
Y70063D01*
X650197Y73425D01*
Y82677D01*
X599114D02*
X650197D01*
X592823Y76386D02*
X599114Y82677D01*
X592823Y71488D02*
Y76386D01*
X582823Y101488D02*
Y105756D01*
X588484Y111417D01*
X592520D01*
X600520Y103791D02*
X602823Y101488D01*
X600520Y103791D02*
Y111417D01*
X611831Y124429D02*
Y129626D01*
X607480Y120079D02*
X611831Y124429D01*
X600520Y120079D02*
X607480D01*
X591831Y120768D02*
Y129626D01*
X657016Y142520D02*
Y152756D01*
Y138315D02*
Y142520D01*
X601831Y154665D02*
Y159626D01*
Y154665D02*
X605905Y150591D01*
X640945D01*
X649016Y142520D01*
Y152756D01*
Y162402D01*
X657016D02*
X659055Y164441D01*
Y174213D01*
X645555D02*
Y181480D01*
X648917Y184843D01*
Y194587D01*
X621949D02*
X648917D01*
X613957Y186594D02*
X621949Y194587D01*
X613957Y177854D02*
Y186594D01*
X619509Y218089D02*
X623957Y213642D01*
X611122Y218089D02*
X619509D01*
X603122Y218089D02*
X603957Y217255D01*
X555283Y80512D02*
Y96811D01*
X535236Y80512D02*
X547283D01*
X546661Y65545D02*
X547283Y66167D01*
Y80512D01*
X550486Y65545D02*
X557087Y72146D01*
X546661Y65545D02*
X550486D01*
X528551Y55997D02*
Y65545D01*
X517618Y94685D02*
X519744Y96811D01*
X532283Y106811D02*
X539646D01*
X540945Y105512D01*
Y100984D02*
Y105512D01*
X536772Y96811D02*
X540945Y100984D01*
X532283Y96811D02*
X536772D01*
X519744D02*
X532283D01*
X523878Y101811D02*
X532283D01*
X521457Y104232D02*
X523878Y101811D01*
X521457Y104232D02*
Y109744D01*
X523524Y111811D01*
X532283D01*
X555283Y96811D02*
Y101811D01*
X547283Y128347D02*
X547448Y128511D01*
Y146771D01*
X529338D02*
Y158275D01*
X57953Y193898D02*
Y204429D01*
Y183858D02*
Y193898D01*
Y172736D02*
Y183858D01*
X65953Y193898D02*
Y204429D01*
Y183858D02*
X73228D01*
X77953Y179134D01*
Y172736D02*
Y179134D01*
X65953Y204429D02*
X76575D01*
X76870Y204724D01*
X123106Y208760D02*
X129429Y215084D01*
X151550D01*
X154823Y211811D01*
Y204429D02*
Y211811D01*
Y204429D02*
X164272D01*
X164665Y204823D01*
X119405Y199360D02*
X123106Y195660D01*
Y191978D02*
Y195660D01*
X119405Y182578D02*
X123106Y178878D01*
Y174557D02*
Y178878D01*
X119405Y165157D02*
X149221D01*
X156800Y172736D01*
X146800D02*
X146823Y172759D01*
X154823Y193925D02*
Y204429D01*
X154800Y183858D02*
X162008D01*
X166800Y179066D01*
Y172736D02*
Y179066D01*
X68405Y73996D02*
X79252Y84842D01*
X120839D01*
X68405Y43209D02*
Y43996D01*
Y43209D02*
X75787Y35827D01*
X119095D01*
X128839Y45571D01*
Y53543D01*
X120839D02*
Y63976D01*
Y74410D01*
X128839D02*
Y84842D01*
X143898D01*
X109686Y99235D02*
X117189Y91732D01*
X153248D01*
X160138Y84842D01*
X168138D02*
X193681D01*
X194291Y85453D01*
X160138Y66535D02*
Y74508D01*
X158563Y64961D02*
X160138Y66535D01*
X151181Y64961D02*
X158563D01*
X128839Y63976D02*
X141437D01*
X151083Y54331D01*
X168138Y74508D02*
Y84842D01*
Y67295D02*
Y74508D01*
Y67295D02*
X170472Y64961D01*
X179134D01*
X151181Y33071D02*
X160138D01*
X151083Y32972D02*
X151181Y33071D01*
X168138D02*
X173638Y38571D01*
Y43110D01*
Y48933D01*
X179035Y54331D01*
X185748Y61043D02*
X194390D01*
X179035Y54331D02*
X185748Y61043D01*
X151181Y43110D02*
X160138D01*
X185396Y154528D02*
Y159411D01*
X187913Y161929D01*
X194488D01*
X217488Y156929D02*
Y161929D01*
Y156929D02*
X226705D01*
X227236Y156398D01*
Y166849D01*
X226525Y167560D02*
X227236Y166849D01*
X235925Y163860D02*
X244605D01*
X235236Y156398D02*
X244783D01*
X235925Y138761D02*
X244470D01*
X235138Y130807D02*
X268406D01*
X270248Y132650D01*
X226525Y131420D02*
Y142461D01*
X218061Y131420D02*
X226525D01*
X218061D02*
Y135273D01*
X217488Y135846D02*
X218061Y135273D01*
X217291Y80453D02*
Y85453D01*
Y80453D02*
X226508D01*
Y90082D01*
X227017Y90591D01*
X236417Y86891D02*
X262722D01*
X270248Y94417D01*
X234842Y80118D02*
X243504D01*
X247835Y75787D01*
X235756Y56595D02*
X250787D01*
X288610Y94417D01*
X311248D01*
X235728Y62777D02*
X249391D01*
X270248Y83634D01*
Y94417D01*
X263337Y42296D02*
Y46506D01*
X270248Y53417D01*
X306371Y42296D02*
X315256D01*
X263337Y185757D02*
X273031Y195451D01*
X332164D01*
X343602Y206890D01*
X371591D01*
X380256Y198225D01*
X281447Y175836D02*
Y185757D01*
Y175836D02*
X281791Y175492D01*
X297146Y185757D02*
X305976D01*
X315256D02*
X325464D01*
X368547Y67618D02*
X380256Y79327D01*
X306769Y67618D02*
X368547D01*
X306572Y67421D02*
X306769Y67618D01*
X281447Y42296D02*
Y49164D01*
X299705Y67421D01*
X306572D01*
X297146Y42296D02*
Y51772D01*
X307185Y61811D01*
X326791D01*
X335256Y53347D01*
X315256Y41346D02*
Y42296D01*
X384252Y158957D02*
X397539Y145669D01*
X309252Y158957D02*
X384252D01*
X297146Y171063D02*
X309252Y158957D01*
X297146Y171063D02*
Y185757D01*
X144390Y49902D02*
X151181Y43110D01*
X144193Y49902D02*
X144390D01*
X194488Y151929D02*
X206004D01*
X217488D01*
X194291Y75453D02*
X205906D01*
X217291D01*
X194390Y66043D02*
X205890D01*
X217390D01*
X186024Y131398D02*
X190472Y135846D01*
X194488D01*
X244783Y156398D02*
X248819Y152362D01*
X260236D01*
X557087Y72146D02*
X565158D01*
X649902Y131201D02*
X657016Y138315D01*
X641535Y131201D02*
X649902D01*
X623457Y43866D02*
X634350Y32972D01*
X650197D01*
X730273Y116929D02*
X731004Y117660D01*
X730529Y108169D02*
X731004Y108644D01*
X720965Y108563D02*
X730135D01*
X727703Y118701D02*
X728102Y119100D01*
X721260Y118701D02*
X727703D01*
X547448Y146771D02*
X552972D01*
X603122Y219270D02*
Y219270D01*
X812106Y68074D02*
X825545D01*
X825840Y67778D01*
X534772Y128347D02*
X547283D01*
X749432Y99628D02*
X749606Y99803D01*
X739004Y99628D02*
X749432D01*
X675801Y192028D02*
X685532D01*
X689293Y188266D01*
X397539Y145669D02*
X443012D01*
X657185Y185110D02*
Y204429D01*
X623957Y206673D02*
Y213642D01*
X194488Y166929D02*
X217488D01*
X194488Y140847D02*
X217488D01*
X194291Y90453D02*
X217291D01*
X739004Y108695D02*
X767162D01*
X695177Y151504D02*
X695632Y151049D01*
X694293Y153735D02*
Y157807D01*
X695632Y151049D02*
X697173Y149508D01*
X490807Y130807D02*
Y147008D01*
X146823Y172759D02*
Y204429D01*
X772007Y144783D02*
X782480D01*
X689293Y139982D02*
Y157807D01*
Y24923D02*
Y47662D01*
X603957Y206673D02*
Y217255D01*
X730135Y108563D02*
X730529Y108169D01*
X728102Y119100D02*
X730273Y116929D01*
X552972Y146771D02*
X565551Y159350D01*
X555283Y106811D02*
Y128347D01*
X658169Y73453D02*
Y92323D01*
X490945Y82874D02*
Y97966D01*
X417331Y41346D02*
X443553Y67569D01*
X315256Y41346D02*
X417331D01*
X762059Y36057D02*
X794291Y68290D01*
X762059Y20570D02*
Y36057D01*
X781201Y20570D02*
Y31479D01*
X794587Y44865D01*
X840840Y44778D02*
X845763D01*
X716966Y135691D02*
X731004D01*
X194390Y51043D02*
X217390D01*
X504528Y104232D02*
X513457Y104232D01*
X194488Y125847D02*
X217488D01*
D11*
X470807Y96136D02*
D03*
X480807D02*
D03*
X490807D02*
D03*
X470807Y132776D02*
D03*
X480807D02*
D03*
X490807D02*
D03*
D12*
X281447Y42296D02*
D03*
X263337D02*
D03*
X281447Y185757D02*
D03*
X263337D02*
D03*
X297146D02*
D03*
X315256D02*
D03*
X546661Y65545D02*
D03*
X528551D02*
D03*
X529338Y146771D02*
D03*
X547448D02*
D03*
X315256Y42296D02*
D03*
X297146D02*
D03*
D13*
X272392Y14546D02*
D03*
X272392Y213507D02*
D03*
X306201D02*
D03*
X537606Y37795D02*
D03*
X538393Y174521D02*
D03*
X306201Y14546D02*
D03*
D14*
X217488Y140847D02*
D03*
Y135846D02*
D03*
Y130847D02*
D03*
X194488D02*
D03*
Y135846D02*
D03*
Y140847D02*
D03*
Y125847D02*
D03*
X217488D02*
D03*
Y166929D02*
D03*
Y161929D02*
D03*
Y156929D02*
D03*
X194488D02*
D03*
Y161929D02*
D03*
Y166929D02*
D03*
X217291Y90453D02*
D03*
Y85453D02*
D03*
Y80453D02*
D03*
X194291D02*
D03*
Y85453D02*
D03*
Y90453D02*
D03*
X217390Y66043D02*
D03*
Y61043D02*
D03*
Y56043D02*
D03*
X194390D02*
D03*
Y61043D02*
D03*
Y66043D02*
D03*
X194488Y151929D02*
D03*
X217488D02*
D03*
X194291Y75453D02*
D03*
X217291D02*
D03*
X194390Y51043D02*
D03*
X217390D02*
D03*
X532283Y111811D02*
D03*
Y106811D02*
D03*
Y101811D02*
D03*
Y96811D02*
D03*
X555283D02*
D03*
Y101811D02*
D03*
Y106811D02*
D03*
Y111811D02*
D03*
D15*
X160138Y43110D02*
D03*
X173638D02*
D03*
X728346Y163762D02*
D03*
X741846D02*
D03*
X660335Y61910D02*
D03*
X646835D02*
D03*
X659055Y174213D02*
D03*
X645555D02*
D03*
X741846Y53034D02*
D03*
X728346D02*
D03*
D16*
X120839Y53543D02*
D03*
X128839D02*
D03*
X120839Y63976D02*
D03*
X128839D02*
D03*
Y84842D02*
D03*
Y74410D02*
D03*
X120839D02*
D03*
X168138Y33071D02*
D03*
Y84842D02*
D03*
X160138D02*
D03*
X168138Y74508D02*
D03*
X781874Y91813D02*
D03*
X773874D02*
D03*
X731004Y99628D02*
D03*
X739004D02*
D03*
X650197Y73425D02*
D03*
X658197D02*
D03*
X648917Y194587D02*
D03*
X656917D02*
D03*
X658197Y42421D02*
D03*
X650197D02*
D03*
X657016Y142520D02*
D03*
X649016D02*
D03*
X708637Y94193D02*
D03*
X700637D02*
D03*
X146823Y204429D02*
D03*
X57953D02*
D03*
X804106Y68074D02*
D03*
X812106D02*
D03*
X804106Y44865D02*
D03*
X812106D02*
D03*
X527236Y80512D02*
D03*
X535236D02*
D03*
X547283D02*
D03*
X555283D02*
D03*
Y128347D02*
D03*
X547283D02*
D03*
X521457Y104232D02*
D03*
X739004Y63565D02*
D03*
Y153723D02*
D03*
X697173Y35039D02*
D03*
X689173D02*
D03*
X697173Y149508D02*
D03*
X689173D02*
D03*
X697173Y24803D02*
D03*
X689173D02*
D03*
X650197Y82677D02*
D03*
X658197D02*
D03*
X648917Y184843D02*
D03*
X656917D02*
D03*
X650197Y51772D02*
D03*
X658197D02*
D03*
X649016Y162402D02*
D03*
X657016D02*
D03*
Y152756D02*
D03*
X649016D02*
D03*
X658197Y32972D02*
D03*
X650197D02*
D03*
X154800Y183858D02*
D03*
X146800D02*
D03*
X146850Y193898D02*
D03*
X57953D02*
D03*
X65953Y183858D02*
D03*
X57953D02*
D03*
X611122Y218089D02*
D03*
X603122D02*
D03*
X592520Y120079D02*
D03*
X600520D02*
D03*
Y111417D02*
D03*
X592520D02*
D03*
X625406Y14567D02*
D03*
X633406D02*
D03*
X689173Y139862D02*
D03*
X697173D02*
D03*
X739004Y90613D02*
D03*
X731004D02*
D03*
Y81597D02*
D03*
X739004D02*
D03*
Y108644D02*
D03*
X731004Y153723D02*
D03*
Y63565D02*
D03*
Y135691D02*
D03*
X739004D02*
D03*
X731004Y72581D02*
D03*
X739004D02*
D03*
X731004Y144707D02*
D03*
X227756Y56595D02*
D03*
X235756D02*
D03*
X227236Y156398D02*
D03*
X235236D02*
D03*
X226842Y80118D02*
D03*
X234842D02*
D03*
X227138Y130807D02*
D03*
X235138D02*
D03*
X526772Y128347D02*
D03*
X534772D02*
D03*
X154823Y204429D02*
D03*
X65953D02*
D03*
X154850Y193898D02*
D03*
X160138Y33071D02*
D03*
Y74508D02*
D03*
X65953Y193898D02*
D03*
X120839Y84842D02*
D03*
X513457Y104232D02*
D03*
X731004Y108644D02*
D03*
X739004Y144707D02*
D03*
Y117660D02*
D03*
X731004D02*
D03*
X739004Y126675D02*
D03*
X731004D02*
D03*
D17*
X805355Y170916D02*
D03*
X809055Y161516D02*
D03*
X801655D02*
D03*
X775707Y154183D02*
D03*
X772007Y161467D02*
D03*
X805355Y154183D02*
D03*
X801655Y178248D02*
D03*
X772007Y144783D02*
D03*
X801655D02*
D03*
X805355Y187648D02*
D03*
X768307Y170867D02*
D03*
X775707D02*
D03*
X772106Y178150D02*
D03*
X768405Y187550D02*
D03*
X775806D02*
D03*
X809055Y178248D02*
D03*
X768307Y154183D02*
D03*
X809055Y144783D02*
D03*
X119405Y165157D02*
D03*
X115706Y174557D02*
D03*
X123106D02*
D03*
X119405Y182578D02*
D03*
X115706Y191978D02*
D03*
X123106D02*
D03*
X119405Y199360D02*
D03*
X115706Y208760D02*
D03*
X123106D02*
D03*
D18*
X840840Y44778D02*
D03*
X835840D02*
D03*
X830840D02*
D03*
X825840D02*
D03*
Y67778D02*
D03*
X830840D02*
D03*
X835840D02*
D03*
X840840D02*
D03*
X704293Y47662D02*
D03*
X699293D02*
D03*
X694293D02*
D03*
X689293D02*
D03*
Y70662D02*
D03*
X694293D02*
D03*
X699293D02*
D03*
X704293D02*
D03*
Y157807D02*
D03*
X699293D02*
D03*
X694293D02*
D03*
X689293D02*
D03*
Y180807D02*
D03*
X694293D02*
D03*
X699293D02*
D03*
X704293D02*
D03*
X843058Y123026D02*
D03*
X838058D02*
D03*
X833058D02*
D03*
X828058D02*
D03*
Y100026D02*
D03*
X833058D02*
D03*
X838058D02*
D03*
X843058D02*
D03*
D19*
X235925Y138761D02*
D03*
Y146161D02*
D03*
X226525Y142461D02*
D03*
X236417Y86891D02*
D03*
Y94291D02*
D03*
X227017Y90591D02*
D03*
X235728Y62777D02*
D03*
Y70177D02*
D03*
X226328Y66477D02*
D03*
X226525Y167560D02*
D03*
X235925Y171260D02*
D03*
Y163860D02*
D03*
D20*
X217390Y56043D02*
Y61043D01*
Y56043D02*
X227205D01*
X227756Y56595D01*
Y65050D01*
X226328Y66477D02*
X227756Y65050D01*
D21*
X529429Y158366D02*
D03*
D22*
X227756Y19685D02*
D03*
X743799Y20070D02*
D03*
D23*
X270248Y173650D02*
D03*
X311248D02*
D03*
Y132650D02*
D03*
X270248D02*
D03*
X380256Y198225D02*
D03*
X395256Y172244D02*
D03*
X380256Y146263D02*
D03*
X350256D02*
D03*
X335256Y172244D02*
D03*
X350256Y198225D02*
D03*
X380256Y79327D02*
D03*
X395256Y53347D02*
D03*
X380256Y27365D02*
D03*
X350256D02*
D03*
X335256Y53347D02*
D03*
X350256Y79327D02*
D03*
X311248Y94417D02*
D03*
X270248D02*
D03*
Y53417D02*
D03*
X311248D02*
D03*
D24*
X290748Y153150D02*
D03*
Y73917D02*
D03*
D25*
X365256Y172244D02*
D03*
X205807Y211516D02*
D03*
X774083Y209628D02*
D03*
X805448D02*
D03*
X232776Y211024D02*
D03*
X742717Y209628D02*
D03*
X365256Y53347D02*
D03*
D26*
X400000Y213287D02*
D03*
X441634Y15945D02*
D03*
D27*
X441181Y213287D02*
D03*
X400453Y15945D02*
D03*
D28*
X430354Y171496D02*
D03*
X425354Y166496D02*
D03*
X420354Y171496D02*
D03*
Y74646D02*
D03*
X425354Y69646D02*
D03*
X430354Y74646D02*
D03*
D29*
X553113Y192328D02*
D03*
X281695Y121280D02*
D03*
X553113Y202564D02*
D03*
X151083Y54331D02*
D03*
X151181Y64961D02*
D03*
X281695Y107190D02*
D03*
D30*
X525161Y192328D02*
D03*
X253743Y121280D02*
D03*
X179035Y54331D02*
D03*
X179134Y64961D02*
D03*
X525161Y202564D02*
D03*
X253743Y107190D02*
D03*
D31*
X167583Y20570D02*
D03*
X781201D02*
D03*
X427913Y101165D02*
D03*
Y126295D02*
D03*
X91062Y20570D02*
D03*
X116569Y20570D02*
D03*
X142076D02*
D03*
X762059Y20570D02*
D03*
D32*
X297342Y106693D02*
D03*
X387343D02*
D03*
X565158Y159153D02*
D03*
X718012Y81595D02*
D03*
X794587Y44865D02*
D03*
X794291Y68290D02*
D03*
X853839Y100026D02*
D03*
X811024Y110219D02*
D03*
X119193Y137697D02*
D03*
X565256Y72244D02*
D03*
X658394Y23031D02*
D03*
X658169Y92323D02*
D03*
X450689Y85827D02*
D03*
X509154Y152728D02*
D03*
X657185Y204429D02*
D03*
X641535Y131201D02*
D03*
X13976Y55264D02*
D03*
X185396Y154528D02*
D03*
X186024Y131398D02*
D03*
X72539Y136516D02*
D03*
X517618Y94685D02*
D03*
X717224Y163779D02*
D03*
X13976Y38480D02*
D03*
X297342Y120980D02*
D03*
X387343D02*
D03*
X722047Y35630D02*
D03*
D33*
X28405Y73996D02*
D03*
X38405D02*
D03*
X48406D02*
D03*
X58406D02*
D03*
X68405D02*
D03*
X78405D02*
D03*
X98405D02*
D03*
Y43996D02*
D03*
X88406D02*
D03*
X78405D02*
D03*
X68405D02*
D03*
X58406D02*
D03*
X48406D02*
D03*
X38405D02*
D03*
X88406Y73996D02*
D03*
X169686Y99235D02*
D03*
X149686D02*
D03*
X139686D02*
D03*
X129686D02*
D03*
X119686D02*
D03*
X109686D02*
D03*
X119686Y129235D02*
D03*
X129686D02*
D03*
X139686D02*
D03*
X159686D02*
D03*
X109686D02*
D03*
X149686D02*
D03*
X159686Y99235D02*
D03*
X77953Y142736D02*
D03*
X67953D02*
D03*
X57953D02*
D03*
X47953D02*
D03*
Y172736D02*
D03*
X57953D02*
D03*
X67953D02*
D03*
X708637Y102695D02*
D03*
X698637D02*
D03*
X688637D02*
D03*
X678637D02*
D03*
Y132695D02*
D03*
X698637D02*
D03*
X623457Y53425D02*
D03*
X613457D02*
D03*
X603457D02*
D03*
Y23425D02*
D03*
X613457D02*
D03*
X623457D02*
D03*
X633457D02*
D03*
X611831Y129626D02*
D03*
X601831D02*
D03*
X591831D02*
D03*
X581831D02*
D03*
Y159626D02*
D03*
X591831D02*
D03*
X601831D02*
D03*
X592823Y71488D02*
D03*
X602823D02*
D03*
X612823D02*
D03*
Y101488D02*
D03*
X602823D02*
D03*
X592823D02*
D03*
X582823D02*
D03*
X603957Y207854D02*
D03*
X613957D02*
D03*
X623957D02*
D03*
X633957D02*
D03*
Y177854D02*
D03*
X623957D02*
D03*
X613957D02*
D03*
X156800Y172736D02*
D03*
X146800D02*
D03*
X136800D02*
D03*
Y142736D02*
D03*
X146800D02*
D03*
X156800D02*
D03*
X166800D02*
D03*
X688637Y132695D02*
D03*
X783677D02*
D03*
X793677Y102695D02*
D03*
X783677D02*
D03*
X773677D02*
D03*
X763677D02*
D03*
Y132695D02*
D03*
X773677D02*
D03*
X42285Y129235D02*
D03*
X52285D02*
D03*
X22285D02*
D03*
X82285Y99235D02*
D03*
X72285D02*
D03*
X62285D02*
D03*
X52285D02*
D03*
X42285D02*
D03*
X32285D02*
D03*
X22285D02*
D03*
X32285Y129235D02*
D03*
X62285D02*
D03*
X72285D02*
D03*
D34*
X28405Y43996D02*
D03*
X169686Y129235D02*
D03*
X77953Y172736D02*
D03*
X708637Y132695D02*
D03*
X633457Y53425D02*
D03*
X611831Y159626D02*
D03*
X582823Y71488D02*
D03*
X603957Y177854D02*
D03*
X166800Y172736D02*
D03*
X793677Y132695D02*
D03*
X82285Y129235D02*
D03*
D35*
X22638Y15748D02*
D03*
X585472Y212598D02*
D03*
Y15748D02*
D03*
X22638Y212598D02*
D03*
X843504Y15748D02*
D03*
Y212598D02*
D03*
D36*
X443307Y67815D02*
D03*
X509154Y133465D02*
D03*
X480807Y147146D02*
D03*
X511024Y69587D02*
D03*
X837598Y91522D02*
D03*
X828058Y92329D02*
D03*
X792717Y144783D02*
D03*
X747714Y144707D02*
D03*
X708630Y157807D02*
D03*
X722424Y153723D02*
D03*
X747443Y81597D02*
D03*
X722557Y63565D02*
D03*
X756004Y130610D02*
D03*
X696654Y12402D02*
D03*
X830610Y31102D02*
D03*
X834391Y82288D02*
D03*
X840453Y82185D02*
D03*
X820472Y100376D02*
D03*
X836220Y140945D02*
D03*
X827854Y140650D02*
D03*
X698721Y56595D02*
D03*
X654429Y123327D02*
D03*
X698917Y168405D02*
D03*
X710335Y120177D02*
D03*
X698721Y78937D02*
D03*
X646161Y23819D02*
D03*
X643504Y14075D02*
D03*
X581791Y34843D02*
D03*
X529035Y55512D02*
D03*
X576279Y185827D02*
D03*
X572933Y119980D02*
D03*
X573327Y110433D02*
D03*
X624508Y110335D02*
D03*
X558268Y138386D02*
D03*
X698425Y190551D02*
D03*
X76870Y204724D02*
D03*
X144193Y85138D02*
D03*
X151083Y32972D02*
D03*
X250984Y187402D02*
D03*
X244685Y163779D02*
D03*
X244587Y138878D02*
D03*
X247835Y75787D02*
D03*
X281791Y175492D02*
D03*
X306004Y185728D02*
D03*
X325492D02*
D03*
X251673Y27461D02*
D03*
X306004Y41929D02*
D03*
X164665Y204823D02*
D03*
X206004Y167224D02*
D03*
Y151929D02*
D03*
X205906Y141339D02*
D03*
X206004Y125984D02*
D03*
X205906Y90059D02*
D03*
Y75453D02*
D03*
X205890Y66043D02*
D03*
X206004Y51279D02*
D03*
X144193Y49902D02*
D03*
X358366Y105217D02*
D03*
X429331Y33169D02*
D03*
X443012Y145177D02*
D03*
X260236Y152362D02*
D03*
X576083Y177264D02*
D03*
X720965Y108563D02*
D03*
X721260Y118701D02*
D03*
X821949Y16437D02*
D03*
X601279Y190847D02*
D03*
X629921Y216142D02*
D03*
X572835Y62500D02*
D03*
X573032Y54035D02*
D03*
X801968Y103051D02*
D03*
X791634Y83465D02*
D03*
X749606Y99803D02*
D03*
X782480Y144882D02*
D03*
X805484Y132508D02*
D03*
X675801Y192028D02*
D03*
X624803Y119882D02*
D03*
X719095Y135531D02*
D03*
X710138Y47638D02*
D03*
X504528Y104035D02*
D03*
X621949Y128642D02*
D03*
X676673Y79528D02*
D03*
D37*
X636713Y71161D02*
D03*
M02*
